<?xml version="1.0" encoding="utf-8"?>

<!DOCTYPE svg PUBLIC "-//W3C//DTD SVG 1.1//EN" "http://www.w3.org/Graphics/SVG/1.1/DTD/svg11.dtd">
<!-- Uploaded to: SVG Repo, www.svgrepo.com, Generator: SVG Repo Mixer Tools -->
<svg height="800px" width="800px" version="1.1" id="_x32_" xmlns="http://www.w3.org/2000/svg" xmlns:xlink="http://www.w3.org/1999/xlink" 
	 viewBox="0 0 512 512"  xml:space="preserve">
<style type="text/css">
	.st0{fill:#000000;}
</style>
<g>
	<polygon class="st0" points="132.414,360.484 89.489,360.484 89.489,317.551 64.915,317.551 64.915,385.058 132.414,385.058 	"/>
	<polygon class="st0" points="425.391,67.508 449.965,67.508 449.965,0 382.466,0 382.466,24.574 425.391,24.574 	"/>
	<polygon class="st0" points="89.489,24.567 132.414,24.574 132.414,0 64.915,0 64.915,67.508 89.489,67.508 	"/>
	<polygon class="st0" points="425.391,360.484 382.466,360.484 382.466,385.058 449.965,385.058 449.965,317.551 425.391,317.551 	
		"/>
	<path class="st0" d="M359.812,435.662c-19.166-7.168-40.989-26.526-40.989-40.965c0-9.559,0-21.502,0-37.885
		c12.287-13.647,30.718-33.79,36.861-68.603c14.335-5.12,22.526-13.311,32.766-49.148c10.895-38.165-16.383-36.861-16.383-36.861
		s0-20.478,0-38.221c0-30.038-13.983-118.775-116.055-118.775c-102.056,0-116.039,88.737-116.039,118.775
		c0,17.742,0,38.221,0,38.221s-27.278-1.304-16.383,36.861c10.224,35.837,18.415,44.028,32.75,49.148
		c6.144,34.813,24.59,54.956,36.877,68.603c0,16.382,0,28.326,0,37.885c0,14.439-23.566,34.822-40.989,40.965
		c-28.062,9.895-98.04,16.871-115.319,76.338h438.181C457.749,452.701,387.666,446.086,359.812,435.662z"/>
</g>
</svg>