<svg width="92" height="92" viewBox="0 0 92 92" fill="none" xmlns="http://www.w3.org/2000/svg">
<rect width="92" height="92" rx="12" fill="#A0827E"/>
<path d="M65.6551 46V52.2069H53.2413V46C53.5131 46.0002 53.7822 45.9468 54.0333 45.8429C54.2844 45.739 54.5126 45.5866 54.7047 45.3944C54.8969 45.2023 55.0493 44.9741 55.1532 44.723C55.2571 44.4719 55.3105 44.2028 55.3103 43.931V41.8621H63.5862V43.931C63.5858 44.2028 63.6391 44.472 63.7429 44.7232C63.8468 44.9744 63.9992 45.2026 64.1913 45.3948C64.3835 45.587 64.6118 45.7394 64.8629 45.8432C65.1141 45.9471 65.3833 46.0003 65.6551 46Z" fill="#FDC8A2"/>
<path d="M63.7504 44.7379C62.4119 45.4902 60.9159 45.9188 59.3822 45.9895C57.8484 46.0603 56.3193 45.7711 54.9172 45.1453C55.1733 44.7922 55.3109 44.3671 55.3103 43.931V41.8621H63.5862V43.931C63.5858 44.2083 63.6417 44.4828 63.7504 44.7379Z" fill="#FDBF92"/>
<path d="M44.4393 49.9017L41.8621 56.3448H50.1379V71.8621H68.7586V56.3448H76V52.2069C76 50.5607 75.3461 48.982 74.182 47.818C73.018 46.6539 71.4393 46 69.7931 46H65.6552L64.4947 47.5472C63.8914 48.3516 63.1091 49.0045 62.2098 49.4542C61.3105 49.9038 60.3188 50.1379 59.3133 50.1379C58.1104 50.1379 56.9314 49.803 55.9082 49.1706C54.885 48.5382 54.0581 47.6334 53.5202 46.5576L53.2414 46H50.2026C48.962 45.9999 47.7499 46.3716 46.7227 47.0671C45.6954 47.7625 44.9001 48.7499 44.4393 49.9017V49.9017Z" fill="#DE5540"/>
<path d="M67.7241 52.2068H69.7931V56.3447H67.7241V52.2068Z" fill="#D64A34"/>
<path d="M59.4483 55.3102C57.4509 55.3094 55.4888 54.7837 53.7587 53.7856L54.7931 51.9939C56.1094 52.7538 57.5917 53.18 59.1106 53.2351C60.6294 53.2902 62.1387 52.9727 63.5066 52.3102L64.4085 54.1723C62.8615 54.919 61.1662 55.3079 59.4483 55.3102V55.3102Z" fill="#D64A34"/>
<path d="M43.9311 71.862H35.6553L41.8622 56.3447H50.138L43.9311 71.862Z" fill="#FDC8A2"/>
<path d="M68.7586 35.6553H66.6896V29.4484H68.7586C69.5817 29.4484 70.3711 29.7753 70.9531 30.3574C71.5351 30.9394 71.8621 31.7287 71.8621 32.5518C71.8621 33.3749 71.5351 34.1643 70.9531 34.7463C70.3711 35.3283 69.5817 35.6553 68.7586 35.6553Z" fill="#FDB683"/>
<path d="M49.1034 29.4482H51.1724V35.6551H49.1034C48.2804 35.6551 47.491 35.3282 46.909 34.7462C46.327 34.1642 46 33.3748 46 32.5517C46 31.7286 46.327 30.9392 46.909 30.3572C47.491 29.7752 48.2804 29.4482 49.1034 29.4482Z" fill="#FDB683"/>
<path d="M55.3103 21.1726H62.5517C64.1978 21.1726 65.7766 21.8265 66.9406 22.9906C68.1046 24.1546 68.7586 25.7333 68.7586 27.3795V34.1036C68.7586 36.7101 67.7232 39.2098 65.8801 41.0528C64.0371 42.8958 61.5374 43.9312 58.931 43.9312C56.3245 43.9312 53.8249 42.8958 51.9818 41.0528C50.1388 39.2098 49.1034 36.7101 49.1034 34.1036V27.3795C49.1034 25.7333 49.7573 24.1546 50.9214 22.9906C52.0854 21.8265 53.6641 21.1726 55.3103 21.1726V21.1726Z" fill="#FDC8A2"/>
<path d="M68.7587 29.4482L66.4774 28.6877C65.3343 28.3066 64.34 27.5756 63.6355 26.5981C62.931 25.6206 62.5518 24.4462 62.5518 23.2413V18.0688C64.1979 18.0688 65.7767 18.7228 66.9407 19.8868C68.1047 21.0508 68.7587 22.6296 68.7587 24.2757V29.4482Z" fill="#7D4A38"/>
<path d="M62.5517 18.069V23.2414C60.5391 24.5839 58.3396 25.6222 56.0241 26.3228C53.7091 27.0236 51.3036 27.3796 48.8849 27.3793H47.0344V24.2759C47.0344 22.081 47.9063 19.976 49.4584 18.4239C51.0104 16.8719 53.1154 16 55.3103 16H59.2038C59.8989 15.9999 60.5804 16.1934 61.1717 16.5588C61.763 16.9243 62.2409 17.4472 62.5517 18.069V18.069Z" fill="#844E3A"/>
<path d="M60.1801 20.8699C60.043 21.007 56.7094 24.2423 47.1482 25.304L47.0344 25.3143V24.276C47.0341 23.9253 47.0561 23.5751 47.1004 23.2272C51.5693 22.7126 54.4827 21.7078 56.1469 20.9501C57.9637 20.1225 58.7163 19.4074 58.7228 19.3997L60.1801 20.8699Z" fill="#784533"/>
<path d="M54.7389 20.0294C54.6458 20.0759 52.4009 21.1725 48.069 21.1725L47.6449 21.1518C47.9467 20.4087 48.3562 19.7142 48.8604 19.0906C52.1307 18.9755 53.8014 18.1841 53.8195 18.175L54.7389 20.0294Z" fill="#784533"/>
<path d="M54.2759 33.5862C53.8667 33.5862 53.4667 33.4648 53.1264 33.2375C52.7862 33.0102 52.521 32.687 52.3644 32.309C52.2078 31.9309 52.1668 31.5149 52.2467 31.1136C52.3265 30.7122 52.5235 30.3436 52.8129 30.0542C53.1022 29.7649 53.4709 29.5678 53.8722 29.488C54.2736 29.4082 54.6896 29.4491 55.0676 29.6057C55.4457 29.7623 55.7688 30.0275 55.9962 30.3678C56.2235 30.708 56.3448 31.108 56.3448 31.5172C56.3442 32.0657 56.126 32.5916 55.7381 32.9795C55.3503 33.3673 54.8244 33.5855 54.2759 33.5862V33.5862Z" fill="#844E3A"/>
<path d="M62.5516 33.5862C62.1424 33.5862 61.7424 33.4648 61.4022 33.2375C61.0619 33.0102 60.7968 32.687 60.6402 32.309C60.4836 31.9309 60.4426 31.5149 60.5224 31.1136C60.6023 30.7122 60.7993 30.3436 61.0887 30.0542C61.378 29.7649 61.7467 29.5678 62.148 29.488C62.5493 29.4082 62.9653 29.4491 63.3434 29.6057C63.7214 29.7623 64.0446 30.0275 64.2719 30.3678C64.4993 30.708 64.6206 31.108 64.6206 31.5172C64.62 32.0657 64.4018 32.5916 64.0139 32.9795C63.626 33.3673 63.1002 33.5855 62.5516 33.5862V33.5862Z" fill="#844E3A"/>
<path d="M58.4137 37.7269C57.1117 37.7276 55.8375 37.3499 54.7461 36.6397L55.8745 34.9055C56.6302 35.3969 57.5123 35.6584 58.4137 35.6584C59.3152 35.6584 60.1972 35.3969 60.953 34.9055L62.0814 36.6397C60.99 37.3499 59.7158 37.7276 58.4137 37.7269V37.7269Z" fill="#FCB079"/>
<path d="M16 71.8621H76V76H16V71.8621Z" fill="#844E3A"/>
<path d="M48.069 38.7585H19.1034C17.3895 38.7585 16 40.148 16 41.862V60.4827C16 62.1967 17.3895 63.5861 19.1034 63.5861H48.069C49.783 63.5861 51.1724 62.1967 51.1724 60.4827V41.862C51.1724 40.148 49.783 38.7585 48.069 38.7585Z" fill="#D5D5D3"/>
<path d="M25.3103 42.8965H29.4482V44.9654H25.3103V42.8965Z" fill="#C6C6C4"/>
<path d="M31.5173 42.8965H35.6553V44.9654H31.5173V42.8965Z" fill="#C6C6C4"/>
<path d="M37.7241 42.8965H41.8621V44.9654H37.7241V42.8965Z" fill="#C6C6C4"/>
<path d="M43.931 42.8965H48.069V44.9654H43.931V42.8965Z" fill="#C6C6C4"/>
<path d="M19.1034 42.8965H23.2413V44.9654H19.1034V42.8965Z" fill="#C6C6C4"/>
<path d="M33.5863 63.5863H37.7242L36.6898 57.3794H33.5863V63.5863Z" fill="#CECECC"/>
<path d="M27.3793 67.7241H39.7931V71.8621H27.3793V67.7241Z" fill="#D5D5D3"/>
<path d="M33.5862 71.8622H23.2413L29.4482 57.3794H36.6896L33.5862 71.8622Z" fill="#DFDFDD"/>
<path d="M43.931 67.7241H56.3448V71.8621H43.931V67.7241Z" fill="#D5D5D3"/>
<path d="M68.7586 56.3447V64.6206H55.3103C54.2128 64.6206 53.1603 65.0565 52.3843 65.8326C51.6083 66.6086 51.1724 67.6611 51.1724 68.7585V70.8275C51.1724 71.1018 51.2814 71.365 51.4754 71.559C51.6694 71.753 51.9325 71.862 52.2068 71.862H68.7586C70.6791 71.862 72.521 71.099 73.879 69.741C75.237 68.383 76 66.5411 76 64.6206V56.3447H68.7586Z" fill="#FDC8A2"/>
</svg>
