<svg width="92" height="92" viewBox="0 0 92 92" fill="none" xmlns="http://www.w3.org/2000/svg">
<rect width="92" height="92" rx="12" fill="#502822"/>
<path d="M37.8288 25.6497L52.4342 40.2551C52.5015 38.9591 52.5597 36.099 52.0683 32.672C51.1826 26.4957 48.9049 21.4211 45.481 17.9975C42.0573 14.5738 36.9829 12.2959 30.8065 11.4103C26.2109 10.7512 22.6324 11.0804 22.4823 11.095C21.7471 11.1652 21.1652 11.7472 21.0949 12.4824C21.0805 12.6324 20.7512 16.2109 21.4102 20.8066C22.2958 26.9829 24.5736 32.0575 27.9974 35.4811C31.4212 38.9048 36.4956 41.1827 42.6719 42.0683C44.9467 42.3945 46.9715 42.4785 48.4553 42.4785C49.2067 42.4785 49.8191 42.4569 50.2549 42.4342L35.6496 27.829C35.0478 27.2273 35.0478 26.2515 35.6496 25.6496C36.2513 25.048 37.227 25.048 37.8288 25.6497Z" fill="#A9BA5A"/>
<path d="M71.4762 21.784C71.4059 21.0488 70.8239 20.4669 70.0888 20.3966C69.6769 20.3573 59.9356 19.4978 54.263 25.1705C54.0421 25.3913 53.8315 25.6187 53.6299 25.8512C54.294 27.837 54.7944 29.9716 55.1188 32.2345C55.2226 32.9592 55.3035 33.6586 55.3664 34.3269L59.3929 30.3004C59.9946 29.6987 60.9703 29.6987 61.5722 30.3004C62.1741 30.9021 62.174 31.8779 61.5722 32.4798L55.5618 38.4902C55.5604 40.061 55.4709 41.0851 55.4514 41.2896C55.4168 41.6512 55.3399 42.0003 55.227 42.3329C58.6501 42.0164 63.3756 40.9366 66.7023 37.6098C72.3748 31.9373 71.5156 22.196 71.4762 21.784Z" fill="#9EB14A"/>
<path d="M19.4496 48.1339C19.8003 48.1339 20.0949 48.2882 20.3334 48.5968C20.5718 48.9054 20.8804 49.5437 21.2592 50.5116C22.1429 52.798 23.0056 56.382 23.8472 61.2636C23.8613 61.3197 23.8683 61.4038 23.8683 61.5161C23.8683 61.6142 23.7981 61.7265 23.6579 61.8527C23.5316 61.9649 23.3422 62.021 23.0898 62.021C22.8513 62.021 22.6479 61.9649 22.4796 61.8527C22.3112 61.7265 22.199 61.5301 22.1429 61.2636C22.0868 60.983 21.9816 60.443 21.8273 59.6434C21.4906 57.8619 21.2662 56.9361 21.154 56.866C20.9856 56.7678 20.4245 56.6626 19.4707 56.5504C18.5308 56.4381 17.9066 56.382 17.598 56.382C17.2894 56.382 17.1071 56.4101 17.051 56.4662C16.7985 56.6906 16.4548 58.395 16.0199 61.5792C15.9638 61.8457 15.6973 61.979 15.2204 61.979C14.7435 61.979 14.505 61.7756 14.505 61.3688C14.505 60.3588 14.8767 58.43 15.6202 55.5825C16.3636 52.7349 16.9808 50.8482 17.4718 49.9224C18.089 48.7301 18.7483 48.1339 19.4496 48.1339ZM19.3655 50.4695C19.1551 50.4695 18.7904 51.0937 18.2713 52.3421C17.7523 53.5765 17.4928 54.341 17.4928 54.6356C17.4928 54.7058 17.5068 54.7548 17.5349 54.7829C17.6471 54.8951 18.089 54.9933 18.8605 55.0775C19.632 55.1616 20.144 55.2037 20.3965 55.2037C20.649 55.2037 20.7893 55.1897 20.8173 55.1616C20.8454 55.1196 20.8594 55.0073 20.8594 54.825C20.8594 54.6286 20.67 53.8571 20.2913 52.5105C19.9125 51.1498 19.6039 50.4695 19.3655 50.4695ZM25.8731 61.3477L25.6416 52.805C25.6416 52.5385 25.7328 52.3211 25.9152 52.1528C26.0975 51.9844 26.2799 51.9003 26.4622 51.9003C26.9111 51.9003 27.1706 52.0896 27.2408 52.4684C27.2969 52.8471 27.3249 53.2399 27.3249 53.6467C28.0824 52.6507 29.0293 52.1528 30.1655 52.1528C31.9049 52.1528 32.7746 54.1376 32.7746 58.1074C32.7746 58.4721 32.7746 59.0262 32.7746 59.7696C32.7746 60.4991 32.7325 61.0321 32.6483 61.3688C32.5501 61.7896 32.2485 62 31.7436 62C31.4069 62 31.2386 61.7756 31.2386 61.3267L31.2596 60.1484C31.2596 58.5212 31.2035 57.413 31.0913 56.8239C30.9931 56.2207 30.8949 55.7438 30.7967 55.3931C30.5582 54.6356 30.1725 54.2569 29.6395 54.2569C28.9381 54.2569 28.4471 54.5094 28.1666 55.0144C27.858 55.5614 27.6756 56.2067 27.6195 56.9501C27.5213 58.2547 27.4722 59.6364 27.4722 61.0952C27.4722 61.3758 27.367 61.6002 27.1566 61.7685C26.9462 61.9369 26.6937 62.021 26.3991 62.021C26.0484 62.021 25.8731 61.7966 25.8731 61.3477ZM40.626 61.1373C40.121 61.7265 39.4828 62.021 38.7113 62.021C37.9398 62.021 37.2735 61.7826 36.7124 61.3056C35.5341 60.3939 34.9449 58.9981 34.9449 57.1185C34.9449 55.6456 35.3517 54.4673 36.1653 53.5836C36.9789 52.6858 37.9819 52.2369 39.1742 52.2369C40.3665 52.2369 41.1801 52.6437 41.615 53.4573C41.9937 54.1727 42.1831 55.2528 42.1831 56.6976L42.141 58.423C42.141 59.2366 42.1761 60.3658 42.2462 61.8106C42.3304 63.2414 42.3724 64.3215 42.3724 65.051C42.3724 66.2573 42.0708 67.141 41.4677 67.7021C40.8785 68.2773 39.9738 68.5648 38.7534 68.5648C38.0239 68.5648 37.2805 68.4105 36.523 68.1019C35.7655 67.7933 35.3868 67.4356 35.3868 67.0288C35.3868 66.7342 35.4639 66.5098 35.6182 66.3555C35.7866 66.2012 35.9759 66.1241 36.1864 66.1241C36.3968 66.1241 36.8667 66.2784 37.5961 66.587C38.3396 66.8956 38.8726 67.0499 39.1952 67.0499C40.2052 67.0499 40.7102 66.2222 40.7102 64.567C40.7102 62.9118 40.6821 61.7685 40.626 61.1373ZM40.605 56.6976C40.605 55.6736 40.4507 54.9582 40.1421 54.5515C39.8475 54.1306 39.3776 53.9202 38.7323 53.9202C38.0871 53.9202 37.5681 54.2148 37.1753 54.8039C36.7825 55.3931 36.5861 56.1436 36.5861 57.0553C36.5861 57.9531 36.7685 58.6685 37.1332 59.2015C37.5119 59.7346 38.0871 60.0011 38.8586 60.0011C39.6301 60.0011 40.1281 59.6715 40.3525 59.0122C40.5208 58.4791 40.605 57.7076 40.605 56.6976ZM49.9959 61.1373C49.4909 61.7265 48.8527 62.021 48.0811 62.021C47.3096 62.021 46.6433 61.7826 46.0822 61.3056C44.9039 60.3939 44.3148 58.9981 44.3148 57.1185C44.3148 55.6456 44.7216 54.4673 45.5352 53.5836C46.3488 52.6858 47.3517 52.2369 48.5441 52.2369C49.7364 52.2369 50.55 52.6437 50.9848 53.4573C51.3636 54.1727 51.5529 55.2528 51.5529 56.6976L51.5108 58.423C51.5108 59.2366 51.5459 60.3658 51.6161 61.8106C51.7002 63.2414 51.7423 64.3215 51.7423 65.051C51.7423 66.2573 51.4407 67.141 50.8375 67.7021C50.2484 68.2773 49.3436 68.5648 48.1232 68.5648C47.3938 68.5648 46.6504 68.4105 45.8929 68.1019C45.1354 67.7933 44.7567 67.4356 44.7567 67.0288C44.7567 66.7342 44.8338 66.5098 44.9881 66.3555C45.1564 66.2012 45.3458 66.1241 45.5562 66.1241C45.7666 66.1241 46.2365 66.2784 46.966 66.587C47.7094 66.8956 48.2425 67.0499 48.5651 67.0499C49.5751 67.0499 50.0801 66.2222 50.0801 64.567C50.0801 62.9118 50.052 61.7685 49.9959 61.1373ZM49.9748 56.6976C49.9748 55.6736 49.8205 54.9582 49.5119 54.5515C49.2174 54.1306 48.7474 53.9202 48.1022 53.9202C47.4569 53.9202 46.9379 54.2148 46.5451 54.8039C46.1524 55.3931 45.956 56.1436 45.956 57.0553C45.956 57.9531 46.1384 58.6685 46.5031 59.2015C46.8818 59.7346 47.4569 60.0011 48.2284 60.0011C48.9999 60.0011 49.4979 59.6715 49.7224 59.0122C49.8907 58.4791 49.9748 57.7076 49.9748 56.6976ZM56.0413 58.928L56.0623 61.0952C56.0623 61.3477 55.9431 61.5792 55.7046 61.7896C55.4802 62 55.2557 62.1052 55.0313 62.1052C54.7087 62.1052 54.5053 61.8527 54.4211 61.3477C54.4071 61.2355 54.351 60.2115 54.2528 58.2757C54.1546 56.3259 53.9652 54.7969 53.6847 53.6888C53.5584 53.1557 53.4953 52.8401 53.4953 52.7419C53.4953 52.279 53.7758 52.0476 54.3369 52.0476C54.5754 52.0476 54.7648 52.1387 54.905 52.3211C55.0453 52.5035 55.1295 52.6928 55.1575 52.8892C55.1996 53.0716 55.2347 53.3241 55.2627 53.6467C55.2908 53.9693 55.3118 54.1727 55.3259 54.2569C55.6204 53.5555 56.0623 53.0295 56.6514 52.6788C57.2406 52.3281 57.8859 52.1528 58.5872 52.1528C59.7375 52.1528 60.3126 52.4473 60.3126 53.0365C60.3126 53.3311 60.2074 53.5695 59.997 53.7519C59.8006 53.9202 59.5691 54.0044 59.3026 54.0044C58.1103 54.0044 57.2687 54.3831 56.7777 55.1406C56.2867 55.8981 56.0413 57.1605 56.0413 58.928ZM64.4528 52.258C65.1962 52.258 65.9046 52.4754 66.5779 52.9102C67.2512 53.3451 67.5879 53.8852 67.5879 54.5304C67.5879 55.1616 67.3144 55.7788 66.7673 56.382C66.2202 56.9712 65.4908 57.3289 64.579 57.4551C64.1862 57.5112 63.5971 57.5393 62.8116 57.5393C62.9659 58.7316 63.2674 59.5172 63.7163 59.8959C63.8566 60.0502 64.046 60.1273 64.2844 60.1273C65.1541 60.1273 65.8836 59.8538 66.4727 59.3067C67.0619 58.7456 67.4827 58.4651 67.7352 58.4651C67.8474 58.4651 68.0157 58.5703 68.2402 58.7807C68.4646 58.9911 68.5768 59.1875 68.5768 59.3699C68.5768 59.7346 68.135 60.2606 67.2512 60.9479C66.8585 61.2706 66.3815 61.5441 65.8204 61.7685C65.2734 61.979 64.7614 62.0842 64.2844 62.0842C63.0641 62.0842 62.1663 61.2986 61.5912 59.7276C61.2265 58.7597 61.0441 57.6936 61.0441 56.5293C61.0441 55.365 61.3176 54.3621 61.8647 53.5204C62.4118 52.6788 63.2745 52.258 64.4528 52.258ZM64.558 53.7098C64.0249 53.7098 63.569 54.0114 63.1903 54.6146C63.05 54.825 62.9168 55.3019 62.7905 56.0454C64.7544 56.0454 65.7363 55.5614 65.7363 54.5935C65.7363 54.0044 65.3435 53.7098 64.558 53.7098ZM77.3181 61.0532C77.3181 61.7124 77.0165 62.0421 76.4133 62.0421C76.1608 62.0421 75.8171 61.4249 75.3823 60.1905C74.9474 58.942 74.3653 57.9812 73.6359 57.3078C73.5657 57.406 73.2642 57.6866 72.7311 58.1495C72.2121 58.5984 71.9035 58.8719 71.8053 58.9701V61.0742C71.7773 61.2846 71.7422 61.4459 71.7001 61.5581C71.658 61.6704 71.5598 61.7756 71.4055 61.8738C71.2653 61.9719 71.0689 62.021 70.8164 62.021C70.4376 62.021 70.2483 61.7896 70.2483 61.3267C70.2483 60.0221 70.1922 58.0022 70.0799 55.2668C69.9677 52.5175 69.9116 50.0557 69.9116 47.8814C69.9116 47.6149 70.0168 47.4045 70.2272 47.2502C70.4517 47.0959 70.6831 47.0187 70.9216 47.0187C71.2442 47.0187 71.4406 47.2221 71.5107 47.6289V51.3532C71.5107 51.8021 71.5177 52.1387 71.5318 52.3632C71.5458 52.5876 71.5598 52.9243 71.5739 53.3732C71.6019 54.299 71.651 55.344 71.7211 56.5083C72.1279 56.1997 72.647 55.7157 73.2782 55.0564C73.9234 54.3831 74.4074 53.808 74.73 53.3311C75.235 52.5315 75.6979 52.1317 76.1187 52.1317C76.231 52.1317 76.3432 52.1598 76.4554 52.2159C76.75 52.3842 76.8973 52.5806 76.8973 52.805C76.8973 53.0295 76.7991 53.3241 76.6027 53.6888C76.0977 54.5585 75.5156 55.351 74.8563 56.0664C75.4875 56.7678 76.1187 57.7707 76.75 59.0753C77.1287 59.9169 77.3181 60.5762 77.3181 61.0532Z" fill="white"/>
<path d="M24.0763 68.1137C24.7943 68.1137 25.5872 68.253 26.4551 68.5316C26.648 68.6816 26.7445 68.8477 26.7445 69.0299C26.7445 69.2013 26.6534 69.3567 26.4712 69.496C26.2998 69.6246 26.1015 69.6889 25.8765 69.6889C25.2979 69.5389 24.7568 69.4638 24.2531 69.4638C23.0959 69.4638 22.2172 69.8067 21.6172 70.4925C21.0171 71.1783 20.7171 72.1963 20.7171 73.5464C20.7171 74.8965 21.0707 75.952 21.7779 76.7128C22.1422 77.1093 22.5762 77.3075 23.0798 77.3075C23.5834 77.3075 24.3871 77.0396 25.4908 76.5038C25.8765 76.3217 26.1337 76.2306 26.2623 76.2306C26.5409 76.2306 26.6802 76.3753 26.6802 76.6646C26.6802 76.9539 26.5462 77.195 26.2783 77.3879C25.3568 77.8701 24.6389 78.1969 24.1245 78.3683C23.6102 78.529 23.1655 78.6094 22.7905 78.6094C22.019 78.6094 21.36 78.3255 20.8135 77.7575C19.8384 76.7074 19.3508 75.2769 19.3508 73.466C19.3508 71.6444 19.8116 70.2996 20.7331 69.4317C21.6654 68.553 22.7798 68.1137 24.0763 68.1137ZM28.044 68.2262C28.0761 67.819 28.1404 67.5565 28.2369 67.4386C28.344 67.3101 28.5101 67.2458 28.7351 67.2458C29.1959 67.2458 29.4263 67.4333 29.4263 67.8083C29.4263 68.0976 29.3995 68.8531 29.3459 70.0746C29.303 71.2962 29.2816 72.3891 29.2816 73.3535C29.2816 74.3179 29.3191 75.0948 29.3941 75.6841C29.5227 76.7128 29.7049 77.2271 29.9406 77.2271C30.1763 77.2271 30.3532 77.061 30.471 76.7289C30.5246 76.6003 30.6103 76.4878 30.7282 76.3913C30.8461 76.2842 30.9961 76.2306 31.1782 76.2306C31.5533 76.2306 31.7408 76.5467 31.7408 77.1789C31.7408 77.5218 31.5533 77.8647 31.1782 78.2076C30.8139 78.5398 30.4496 78.7059 30.0853 78.7059C29.7209 78.7059 29.4263 78.6469 29.2012 78.529C28.9869 78.4005 28.8101 78.2129 28.6708 77.9665C28.5423 77.72 28.4351 77.4843 28.3494 77.2593C28.2744 77.0235 28.2208 76.7396 28.1886 76.4074C28.1244 75.8716 28.0761 75.0144 28.044 73.8357C28.0226 72.6463 28.0118 71.5158 28.0118 70.4443C28.0118 69.362 28.0226 68.6227 28.044 68.2262ZM36.846 71.1194C37.3175 71.1194 37.5532 71.5212 37.5532 72.3248C37.5532 72.4106 37.5532 72.5017 37.5532 72.5981L37.5211 73.7232C37.5104 74.0768 37.505 74.4251 37.505 74.768L37.7461 78.4005C37.7461 78.6683 37.4728 78.8023 36.9264 78.8023C36.8942 78.8023 36.8139 78.8023 36.6853 78.8023C36.5674 78.8023 36.4817 78.7541 36.4281 78.6576C36.3852 78.5612 36.3799 78.4433 36.412 78.304C36.4549 78.1647 36.4442 78.0094 36.3799 77.8379C35.887 78.363 35.2333 78.6255 34.419 78.6255C32.9081 78.6255 32.1527 77.4575 32.1527 75.1216C32.1527 73.825 32.3938 72.8445 32.876 72.1802C33.3689 71.5158 34.0707 71.1837 34.9815 71.1837C35.4101 71.1837 35.8388 71.2587 36.2674 71.4087C36.4067 71.2158 36.5995 71.1194 36.846 71.1194ZM35.1744 72.582C34.5636 72.582 34.1082 72.7588 33.8082 73.1124C33.5082 73.466 33.3581 74.1143 33.3581 75.0573C33.3581 76.6431 33.7868 77.4361 34.644 77.4361C34.869 77.4361 35.1155 77.3343 35.3833 77.1307C35.6619 76.9271 35.8548 76.6967 35.962 76.4396C36.1656 75.8609 36.2674 75.2287 36.2674 74.5429C36.2674 73.8571 36.1816 73.3589 36.0102 73.0481C35.8495 72.7374 35.5709 72.582 35.1744 72.582ZM38.9291 73.1606C38.9291 72.5284 39.1541 72.0248 39.6042 71.6498C40.0542 71.2747 40.5739 71.0872 41.1632 71.0872C41.7633 71.0872 42.3366 71.1944 42.8831 71.4087C43.4295 71.623 43.7028 71.9069 43.7028 72.2606C43.7028 72.4427 43.6331 72.5874 43.4938 72.6945C43.3545 72.8017 43.2313 72.8553 43.1242 72.8553C43.0277 72.8553 42.9474 72.8553 42.8831 72.8553C42.8295 72.8445 42.6152 72.7427 42.2401 72.5499C41.8758 72.357 41.5383 72.2606 41.2275 72.2606C40.9168 72.2606 40.6489 72.3409 40.4239 72.5017C40.2096 72.6517 40.1024 72.8767 40.1024 73.1767C40.1024 73.4768 40.2257 73.7125 40.4721 73.8839C40.7293 74.0554 41.174 74.2054 41.8062 74.334C42.4384 74.4519 42.9206 74.6233 43.2527 74.8483C43.5956 75.0733 43.7671 75.4912 43.7671 76.102C43.7671 76.9914 43.5313 77.6236 43.0599 77.9986C42.5991 78.363 42.0366 78.5451 41.3722 78.5451C40.7078 78.5451 40.1399 78.454 39.6685 78.2719C39.2077 78.0897 38.9773 77.8165 38.9773 77.4522C38.9773 77.0343 39.1863 76.8253 39.6042 76.8253C39.7113 76.8253 39.9471 76.9003 40.3114 77.0503C40.6757 77.2003 41.0347 77.2754 41.3883 77.2754C41.7526 77.2754 42.0258 77.1628 42.208 76.9378C42.4009 76.7021 42.4973 76.4342 42.4973 76.1342C42.4973 75.8341 42.3741 75.6198 42.1276 75.4912C41.8812 75.3519 41.5061 75.2394 41.0025 75.1537C40.4989 75.068 40.1292 74.9769 39.8935 74.8805C39.2506 74.6233 38.9291 74.05 38.9291 73.1606ZM45.1135 73.1606C45.1135 72.5284 45.3385 72.0248 45.7885 71.6498C46.2386 71.2747 46.7583 71.0872 47.3476 71.0872C47.9477 71.0872 48.5209 71.1944 49.0674 71.4087C49.6139 71.623 49.8872 71.9069 49.8872 72.2606C49.8872 72.4427 49.8175 72.5874 49.6782 72.6945C49.5389 72.8017 49.4157 72.8553 49.3085 72.8553C49.2121 72.8553 49.1317 72.8553 49.0674 72.8553C49.0138 72.8445 48.7995 72.7427 48.4245 72.5499C48.0602 72.357 47.7226 72.2606 47.4119 72.2606C47.1012 72.2606 46.8333 72.3409 46.6082 72.5017C46.3939 72.6517 46.2868 72.8767 46.2868 73.1767C46.2868 73.4768 46.41 73.7125 46.6565 73.8839C46.9136 74.0554 47.3583 74.2054 47.9905 74.334C48.6227 74.4519 49.1049 74.6233 49.4371 74.8483C49.78 75.0733 49.9514 75.4912 49.9514 76.102C49.9514 76.9914 49.7157 77.6236 49.2442 77.9986C48.7835 78.363 48.2209 78.5451 47.5566 78.5451C46.8922 78.5451 46.3243 78.454 45.8528 78.2719C45.3921 78.0897 45.1617 77.8165 45.1617 77.4522C45.1617 77.0343 45.3706 76.8253 45.7885 76.8253C45.8957 76.8253 46.1314 76.9003 46.4957 77.0503C46.8601 77.2003 47.219 77.2754 47.5726 77.2754C47.937 77.2754 48.2102 77.1628 48.3924 76.9378C48.5852 76.7021 48.6817 76.4342 48.6817 76.1342C48.6817 75.8341 48.5584 75.6198 48.312 75.4912C48.0655 75.3519 47.6905 75.2394 47.1869 75.1537C46.6833 75.068 46.3136 74.9769 46.0778 74.8805C45.4349 74.6233 45.1135 74.05 45.1135 73.1606ZM52.0854 68.4673C52.2783 68.4673 52.4604 68.5584 52.6319 68.7406C52.8033 68.9227 52.889 69.1156 52.889 69.3192C52.889 69.5121 52.7926 69.7103 52.5997 69.9139C52.4176 70.1175 52.2247 70.2193 52.0211 70.2193C51.8175 70.2193 51.63 70.1336 51.4585 69.9621C51.2978 69.7907 51.2174 69.571 51.2174 69.3031C51.2174 68.7888 51.496 68.5102 52.0532 68.4673C52.064 68.4673 52.0747 68.4673 52.0854 68.4673ZM52.7605 76.8896L52.7765 78.0147C52.7765 78.2183 52.6962 78.3898 52.5354 78.529C52.3747 78.6576 52.2033 78.7219 52.0211 78.7219C51.7532 78.7219 51.6139 78.588 51.6032 78.3201C51.4639 74.9019 51.3943 73.0106 51.3943 72.6463C51.3943 72.282 51.4103 71.8373 51.4425 71.3122C51.4639 71.1194 51.5871 71.0229 51.8122 71.0229C52.3801 71.0229 52.7015 71.2533 52.7765 71.7141C52.8087 71.9498 52.8248 72.1373 52.8248 72.2766L52.7605 73.2892V76.8896ZM60.116 72.807L60.0678 76.8896C60.0678 77.4682 60.0678 77.854 60.0678 78.0469C60.0785 78.2397 60.0089 78.4005 59.8589 78.529C59.7088 78.6576 59.532 78.7219 59.3284 78.7219C59.1248 78.7219 58.9855 78.588 58.9105 78.3201C58.782 75.8984 58.7177 74.4519 58.7177 73.9804C58.7177 73.4982 58.7177 73.2142 58.7177 73.1285V72.3891C58.4819 72.432 58.2355 72.4534 57.9783 72.4534C57.7319 72.4534 57.5283 72.4481 57.3675 72.4374C57.389 72.866 57.4372 73.6321 57.5122 74.7358C57.5872 75.8288 57.6247 76.895 57.6247 77.9343C57.6247 78.1487 57.539 78.3201 57.3675 78.4487C57.1961 78.5773 57.0193 78.6416 56.8371 78.6416C56.5478 78.6416 56.4031 78.4701 56.4031 78.1272C56.4031 77.1628 56.3656 76.2252 56.2906 75.3144C56.2156 74.4036 56.162 73.4446 56.1299 72.4374C55.1655 72.4374 54.603 72.3409 54.4422 72.148C54.3779 72.073 54.3458 71.9766 54.3458 71.8587C54.3458 71.5801 54.4583 71.398 54.6833 71.3122C54.9191 71.2265 55.1869 71.1837 55.487 71.1837C55.787 71.1837 56.0013 71.1837 56.1299 71.1837C56.162 69.4371 56.2585 68.3548 56.4192 67.9369C56.5157 67.6797 56.6442 67.4922 56.805 67.3743C56.9764 67.2458 57.1211 67.1761 57.2389 67.1654C57.3675 67.144 57.5765 67.1333 57.8658 67.1333C58.948 67.1333 59.6392 67.3368 59.9392 67.744C60.1642 68.0548 60.2768 68.4352 60.2768 68.8852C60.2768 69.121 60.1857 69.3353 60.0035 69.5281C59.8213 69.721 59.6231 69.8175 59.4088 69.8175C59.3981 69.8175 59.3874 69.8175 59.3767 69.8175C58.7766 69.7532 58.4766 69.4478 58.4766 68.9013C58.4766 68.8156 58.5194 68.6763 58.6052 68.4834C58.4337 68.3869 58.2462 68.3387 58.0426 68.3387C57.5711 68.3387 57.33 68.7566 57.3193 69.5924C57.3086 69.6782 57.3032 69.7692 57.3032 69.8657L57.3354 71.2319L59.1999 71.1515C59.4677 71.1515 59.6713 71.189 59.8106 71.264C59.9606 71.339 60.0517 71.489 60.0839 71.7141C60.1053 72.0034 60.116 72.3677 60.116 72.807ZM63.3691 71.1837C63.937 71.1837 64.4781 71.3497 64.9924 71.6819C65.5068 72.0141 65.7639 72.4266 65.7639 72.9196C65.7639 73.4017 65.555 73.8732 65.1371 74.334C64.7192 74.784 64.162 75.0573 63.4655 75.1537C63.1655 75.1966 62.7154 75.218 62.1154 75.218C62.2332 76.1288 62.4636 76.7289 62.8065 77.0182C62.9137 77.1361 63.0583 77.195 63.2405 77.195C63.9048 77.195 64.462 76.986 64.9121 76.5681C65.3621 76.1395 65.6836 75.9252 65.8765 75.9252C65.9622 75.9252 66.0908 76.0056 66.2622 76.1663C66.4337 76.327 66.5194 76.4771 66.5194 76.6164C66.5194 76.895 66.1818 77.2968 65.5068 77.8218C65.2067 78.0683 64.8424 78.2772 64.4138 78.4487C63.9959 78.6094 63.6048 78.6898 63.2405 78.6898C62.3082 78.6898 61.6225 78.0897 61.1831 76.8896C60.9045 76.1502 60.7652 75.3359 60.7652 74.4465C60.7652 73.5571 60.9742 72.791 61.3921 72.148C61.81 71.5051 62.469 71.1837 63.3691 71.1837ZM63.4494 72.2927C63.0422 72.2927 62.694 72.5231 62.4047 72.9838C62.2975 73.1446 62.1957 73.5089 62.0993 74.0768C63.5994 74.0768 64.3495 73.7071 64.3495 72.9678C64.3495 72.5177 64.0495 72.2927 63.4494 72.2927ZM69.5321 76.2788L69.5481 77.9343C69.5481 78.1272 69.4571 78.304 69.2749 78.4648C69.1035 78.6255 68.932 78.7059 68.7606 78.7059C68.5141 78.7059 68.3587 78.513 68.2944 78.1272C68.2837 78.0415 68.2409 77.2593 68.1659 75.7806C68.0909 74.2911 67.9462 73.1231 67.7319 72.2766C67.6354 71.8694 67.5872 71.6283 67.5872 71.5533C67.5872 71.1997 67.8015 71.0229 68.2302 71.0229C68.4123 71.0229 68.557 71.0926 68.6641 71.2319C68.7713 71.3712 68.8356 71.5158 68.857 71.6659C68.8891 71.8052 68.9159 71.998 68.9374 72.2445C68.9588 72.4909 68.9749 72.6463 68.9856 72.7106C69.2106 72.1748 69.5481 71.773 69.9982 71.5051C70.4482 71.2372 70.9411 71.1033 71.4769 71.1033C72.3556 71.1033 72.7949 71.3283 72.7949 71.7784C72.7949 72.0034 72.7145 72.1855 72.5538 72.3248C72.4038 72.4534 72.227 72.5177 72.0234 72.5177C71.1126 72.5177 70.4697 72.807 70.0946 73.3857C69.7196 73.9643 69.5321 74.9287 69.5321 76.2788Z" fill="white"/>
</svg>
