<svg width="92" height="92" viewBox="0 0 92 92" fill="none" xmlns="http://www.w3.org/2000/svg">
<rect width="92" height="92" rx="12" fill="#1C1E29"/>
<path fill-rule="evenodd" clip-rule="evenodd" d="M27.1706 20.0015C27.4925 19.978 27.7618 20.2339 27.7618 20.5529V34.1358C27.7618 34.446 27.5074 34.6975 27.1936 34.6975H11.8434C11.4967 34.6975 11.2303 34.3928 11.2935 34.0558C12.7225 26.442 19.204 20.5818 27.1706 20.0015Z" fill="#AB63FA"/>
<path fill-rule="evenodd" clip-rule="evenodd" d="M11.2828 36.8424C11.1288 36.8424 11.0026 36.9637 11.001 37.1161C11.0003 37.1776 11 37.2392 11 37.301C11 46.84 18.8232 54.5729 28.4735 54.5729C28.8531 54.5729 29.2298 54.561 29.6033 54.5374C29.7513 54.528 29.8652 54.406 29.8652 54.2594V51.4455C29.8652 51.2797 29.7205 51.1501 29.553 51.1627C29.1967 51.1894 28.8368 51.203 28.4735 51.203C20.706 51.203 14.4092 44.9789 14.4092 37.301C14.4092 37.2447 14.4096 37.1885 14.4102 37.1325C14.4121 36.9738 14.2838 36.8424 14.1233 36.8424H11.2828ZM30.122 23.4935C29.9769 23.4767 29.8652 23.3561 29.8652 23.2116V20.3869C29.8652 20.2231 30.0074 20.094 30.1723 20.1097C38.7784 20.9304 45.5592 27.9219 45.9309 36.5534C45.9377 36.7113 45.8092 36.8424 45.6494 36.8424H42.8054C42.6521 36.8424 42.5266 36.7214 42.5187 36.57C42.1627 29.7762 36.8722 24.2725 30.122 23.4935Z" fill="#AB63FA"/>
<path d="M21.6736 64.8655L24.4203 55.8567H27.2003L22.9803 67.8355H20.3751L16.1719 55.8567H18.9435L21.6736 64.8655ZM31.004 67.8355H28.507V55.8567H31.004V67.8355ZM35.973 65.8528H42.0822V67.8355H32.8517V66.3876L38.8446 57.8559H32.8601V55.8567H41.9491V57.2718L35.973 65.8528ZM52.836 55.8567V63.7466C52.836 65.0575 52.4198 66.0941 51.5876 66.8564C50.7607 67.6189 49.6288 68.0001 48.1915 68.0001C46.7766 68.0001 45.653 67.6298 44.8207 66.8894C43.9883 66.1489 43.5638 65.1315 43.5472 63.837V55.8567H46.0442V63.763C46.0442 64.5473 46.2328 65.1205 46.6102 65.4825C46.9931 65.839 47.5202 66.0173 48.1915 66.0173C49.5954 66.0173 50.3085 65.2877 50.3307 63.8289V55.8567H52.836ZM61.5422 65.3674H57.1641L56.3318 67.8355H53.6767L58.1878 55.8567H60.5017L65.0379 67.8355H62.3829L61.5422 65.3674ZM57.8382 63.3682H60.868L59.3448 58.8843L57.8382 63.3682ZM68.6669 65.8528H73.9688V67.8355H66.1699V55.8567H68.6669V65.8528ZM75.3755 66.6673C75.3755 66.2887 75.5031 65.9817 75.7584 65.7458C76.0192 65.51 76.3438 65.3921 76.7321 65.3921C77.1262 65.3921 77.4508 65.51 77.706 65.7458C77.9668 65.9817 78.0972 66.2887 78.0972 66.6673C78.0972 67.0402 77.9695 67.3446 77.7143 67.5805C77.459 67.8108 77.1317 67.9261 76.7321 67.9261C76.3382 67.9261 76.0136 67.8108 75.7584 67.5805C75.5031 67.3446 75.3755 67.0402 75.3755 66.6673Z" fill="#636EFA"/>
<path d="M45.7537 54.9174H42.4245L35.9434 44.4084V54.9174H32.614V38.9455H35.9434L42.4356 49.4764V38.9455H45.7537V54.9174ZM52.2016 54.9174H48.8722V38.9455H52.2016V54.9174ZM67.9826 49.597C67.8567 51.3157 67.2131 52.6685 66.0515 53.6559C64.8974 54.6432 63.3733 55.1367 61.4792 55.1367C59.4077 55.1367 57.7763 54.4494 56.5851 53.0745C55.4014 51.6923 54.8095 49.7983 54.8095 47.3922V46.4159C54.8095 44.8802 55.0832 43.5272 55.6308 42.3571C56.1783 41.1871 56.9587 40.2911 57.9724 39.6695C58.9933 39.0406 60.1771 38.7261 61.5236 38.7261C63.3881 38.7261 64.89 39.2198 66.0294 40.207C67.1686 41.1944 67.8272 42.5801 68.0047 44.3646H64.6753C64.5939 43.3334 64.3017 42.5874 63.7987 42.1267C63.303 41.6587 62.5446 41.4246 61.5236 41.4246C60.4138 41.4246 59.5815 41.8196 59.0267 42.6094C58.4792 43.392 58.198 44.6096 58.1832 46.2623V47.469C58.1832 49.1949 58.4458 50.4564 58.9711 51.2535C59.5038 52.0506 60.3399 52.4492 61.4792 52.4492C62.5076 52.4492 63.2734 52.2188 63.7764 51.7581C64.287 51.2901 64.5792 50.5697 64.6532 49.597H67.9826ZM79.8904 47.9955H73.4981V52.2737H81.0001V54.9174H70.1687V38.9455H80.9779V41.6111H73.4981V45.4177H79.8904V47.9955Z" fill="#636EFA"/>
</svg>
