<svg width="92" height="92" viewBox="0 0 92 92" fill="none" xmlns="http://www.w3.org/2000/svg">
<rect width="92" height="92" rx="12" fill="#282F44"/>
<path d="M18.4956 77.0622C17.7696 77.0622 17.0956 76.9533 16.4733 76.7356C15.8615 76.5074 15.3844 76.2222 15.0422 75.88C14.8867 75.7141 14.8193 75.5274 14.84 75.32C14.8711 75.1022 14.9748 74.9259 15.1511 74.7911C15.3585 74.6252 15.5607 74.5578 15.7578 74.5889C15.9652 74.6096 16.1415 74.6978 16.2867 74.8533C16.463 75.0504 16.743 75.237 17.1267 75.4133C17.5207 75.5793 17.9563 75.6622 18.4333 75.6622C19.0348 75.6622 19.4911 75.5637 19.8022 75.3667C20.1237 75.1696 20.2896 74.9156 20.3 74.6044C20.3104 74.2933 20.16 74.0237 19.8489 73.7956C19.5481 73.5674 18.9933 73.3807 18.1844 73.2356C17.137 73.0281 16.3748 72.717 15.8978 72.3022C15.4311 71.8874 15.1978 71.3793 15.1978 70.7778C15.1978 70.2489 15.3533 69.8133 15.6644 69.4711C15.9756 69.1185 16.3748 68.8593 16.8622 68.6933C17.3496 68.517 17.8578 68.4289 18.3867 68.4289C19.0711 68.4289 19.6778 68.5378 20.2067 68.7556C20.7356 68.9733 21.1556 69.2741 21.4667 69.6578C21.6119 69.8237 21.6793 70 21.6689 70.1867C21.6585 70.363 21.5704 70.5133 21.4044 70.6378C21.2385 70.7519 21.0415 70.7881 20.8133 70.7467C20.5852 70.7052 20.3933 70.6119 20.2378 70.4667C19.9785 70.2178 19.6985 70.0467 19.3978 69.9533C19.097 69.86 18.7496 69.8133 18.3556 69.8133C17.8993 69.8133 17.5104 69.8911 17.1889 70.0467C16.8778 70.2022 16.7222 70.4304 16.7222 70.7311C16.7222 70.9178 16.7689 71.0889 16.8622 71.2444C16.9659 71.3896 17.163 71.5244 17.4533 71.6489C17.7437 71.763 18.1689 71.877 18.7289 71.9911C19.9007 72.2193 20.7096 72.5459 21.1556 72.9711C21.6119 73.3859 21.84 73.8993 21.84 74.5111C21.84 74.9881 21.7104 75.4185 21.4511 75.8022C21.2022 76.1859 20.8289 76.4919 20.3311 76.72C19.8437 76.9481 19.2319 77.0622 18.4956 77.0622ZM27.3928 77.0622C26.6358 77.0622 25.9566 76.8756 25.3551 76.5022C24.7536 76.1185 24.2766 75.6052 23.924 74.9622C23.5817 74.3089 23.4106 73.5726 23.4106 72.7533C23.4106 71.9341 23.5973 71.1978 23.9706 70.5444C24.3543 69.8911 24.8677 69.3778 25.5106 69.0044C26.164 68.6207 26.8951 68.4289 27.704 68.4289C28.5128 68.4289 29.2388 68.6207 29.8817 69.0044C30.5247 69.3778 31.0328 69.8911 31.4062 70.5444C31.7899 71.1978 31.9817 71.9341 31.9817 72.7533V76.2222C31.9817 76.4504 31.904 76.6422 31.7484 76.7978C31.6032 76.943 31.4166 77.0156 31.1884 77.0156C30.9603 77.0156 30.7684 76.943 30.6128 76.7978C30.4677 76.6422 30.3951 76.4504 30.3951 76.2222V75.6467C30.0321 76.0822 29.5914 76.4296 29.0728 76.6889C28.5647 76.9378 28.0047 77.0622 27.3928 77.0622ZM27.704 75.6622C28.2328 75.6622 28.7047 75.5378 29.1195 75.2889C29.5343 75.0296 29.861 74.6822 30.0995 74.2467C30.338 73.8007 30.4573 73.303 30.4573 72.7533C30.4573 72.1933 30.338 71.6956 30.0995 71.26C29.861 70.8141 29.5343 70.4667 29.1195 70.2178C28.7047 69.9585 28.2328 69.8289 27.704 69.8289C27.1854 69.8289 26.7136 69.9585 26.2884 70.2178C25.8736 70.4667 25.5417 70.8141 25.2928 71.26C25.0543 71.6956 24.9351 72.1933 24.9351 72.7533C24.9351 73.303 25.0543 73.8007 25.2928 74.2467C25.5417 74.6822 25.8736 75.0296 26.2884 75.2889C26.7136 75.5378 27.1854 75.6622 27.704 75.6622ZM37.4387 77C36.9202 77 36.4535 76.8704 36.0387 76.6111C35.6239 76.3415 35.2972 75.9785 35.0587 75.5222C34.8202 75.0659 34.7009 74.5526 34.7009 73.9822V70.14H33.9854C33.7676 70.14 33.5913 70.0778 33.4565 69.9533C33.3217 69.8289 33.2543 69.6733 33.2543 69.4867C33.2543 69.2793 33.3217 69.1133 33.4565 68.9889C33.5913 68.8644 33.7676 68.8022 33.9854 68.8022H34.7009V66.5622C34.7009 66.3341 34.7735 66.1474 34.9187 66.0022C35.0639 65.857 35.2505 65.7844 35.4787 65.7844C35.7068 65.7844 35.8935 65.857 36.0387 66.0022C36.1839 66.1474 36.2565 66.3341 36.2565 66.5622V68.8022H37.5787C37.7965 68.8022 37.9728 68.8644 38.1076 68.9889C38.2424 69.1133 38.3098 69.2793 38.3098 69.4867C38.3098 69.6733 38.2424 69.8289 38.1076 69.9533C37.9728 70.0778 37.7965 70.14 37.5787 70.14H36.2565V73.9822C36.2565 74.397 36.3705 74.7444 36.5987 75.0244C36.8268 75.3044 37.1068 75.4444 37.4387 75.4444H37.9676C38.1543 75.4444 38.3098 75.517 38.4343 75.6622C38.5691 75.8074 38.6365 75.9941 38.6365 76.2222C38.6365 76.4504 38.5483 76.637 38.372 76.7822C38.2061 76.9274 37.9883 77 37.7187 77H37.4387ZM44.1644 77.0778C43.4489 77.0778 42.8059 76.9274 42.2355 76.6267C41.6755 76.3156 41.2296 75.8644 40.8977 75.2733C40.5763 74.6822 40.4155 73.9563 40.4155 73.0956V69.2689C40.4155 69.0407 40.4881 68.8541 40.6333 68.7089C40.7889 68.5533 40.9807 68.4756 41.2089 68.4756C41.437 68.4756 41.6237 68.5533 41.7689 68.7089C41.9244 68.8541 42.0022 69.0407 42.0022 69.2689V73.0956C42.0022 73.977 42.2355 74.6252 42.7022 75.04C43.1792 75.4444 43.7703 75.6467 44.4755 75.6467C44.9214 75.6467 45.3155 75.5585 45.6577 75.3822C46.0103 75.2059 46.2903 74.9674 46.4977 74.6667C46.7051 74.3659 46.8089 74.0289 46.8089 73.6556V69.2689C46.8089 69.0304 46.8814 68.8385 47.0266 68.6933C47.1822 68.5481 47.374 68.4756 47.6022 68.4756C47.8407 68.4756 48.0326 68.5481 48.1777 68.6933C48.3229 68.8385 48.3955 69.0304 48.3955 69.2689V76.2067C48.3955 76.4348 48.3229 76.6267 48.1777 76.7822C48.0326 76.9274 47.8407 77 47.6022 77C47.374 77 47.1822 76.9274 47.0266 76.7822C46.8814 76.6267 46.8089 76.4348 46.8089 76.2067V76.0356C46.4874 76.357 46.0985 76.6111 45.6422 76.7978C45.1859 76.9844 44.6933 77.0778 44.1644 77.0778ZM51.9522 77C51.724 77 51.5373 76.9326 51.3922 76.7978C51.2573 76.6526 51.1899 76.4659 51.1899 76.2378V65.6133C51.1899 65.3852 51.2573 65.2037 51.3922 65.0689C51.5373 64.9237 51.724 64.8511 51.9522 64.8511C52.1803 64.8511 52.3618 64.9237 52.4966 65.0689C52.6418 65.2037 52.7144 65.3852 52.7144 65.6133V71.9444L56.4944 68.5689C56.6499 68.4237 56.821 68.3563 57.0077 68.3667C57.2047 68.377 57.3707 68.46 57.5055 68.6156C57.6507 68.7711 57.7181 68.9422 57.7077 69.1289C57.6973 69.3156 57.6144 69.4815 57.4588 69.6267L54.5966 72.1778L57.6144 75.88C57.7492 76.0459 57.8062 76.2274 57.7855 76.4244C57.7751 76.6111 57.6818 76.777 57.5055 76.9222C57.3396 77.057 57.1529 77.1141 56.9455 77.0933C56.7484 77.083 56.5825 76.9948 56.4477 76.8289L53.4922 73.1733L52.7144 73.8578V76.2378C52.7144 76.4659 52.6418 76.6526 52.4966 76.7978C52.3618 76.9326 52.1803 77 51.9522 77ZM62.0685 77C61.6122 77 61.2077 76.8756 60.8552 76.6267C60.5026 76.3778 60.2277 76.0407 60.0307 75.6156C59.8337 75.18 59.7352 74.6822 59.7352 74.1222V65.6289C59.7352 65.4007 59.8077 65.2141 59.9529 65.0689C60.0981 64.9237 60.2848 64.8511 60.5129 64.8511C60.7411 64.8511 60.9277 64.9237 61.0729 65.0689C61.2181 65.2141 61.2907 65.4007 61.2907 65.6289V74.1222C61.2907 74.5059 61.3633 74.8222 61.5085 75.0711C61.6537 75.32 61.8403 75.4444 62.0685 75.4444H62.4574C62.6648 75.4444 62.8307 75.517 62.9552 75.6622C63.09 75.8074 63.1574 75.9941 63.1574 76.2222C63.1574 76.4504 63.0589 76.637 62.8618 76.7822C62.6648 76.9274 62.4107 77 62.0996 77H62.0685ZM65.6588 77C65.4306 77 65.2388 76.9274 65.0832 76.7822C64.938 76.6267 64.8655 76.4348 64.8655 76.2067V69.2844C64.8655 69.0459 64.938 68.8541 65.0832 68.7089C65.2388 68.5637 65.4306 68.4911 65.6588 68.4911C65.8973 68.4911 66.0892 68.5637 66.2343 68.7089C66.3795 68.8541 66.4521 69.0459 66.4521 69.2844V76.2067C66.4521 76.4348 66.3795 76.6267 66.2343 76.7822C66.0892 76.9274 65.8973 77 65.6588 77ZM65.6588 67.1067C65.3788 67.1067 65.1351 67.0081 64.9277 66.8111C64.7306 66.6037 64.6321 66.36 64.6321 66.08C64.6321 65.8 64.7306 65.5615 64.9277 65.3644C65.1351 65.157 65.3788 65.0533 65.6588 65.0533C65.9388 65.0533 66.1773 65.157 66.3743 65.3644C66.5817 65.5615 66.6855 65.8 66.6855 66.08C66.6855 66.36 66.5817 66.6037 66.3743 66.8111C66.1773 67.0081 65.9388 67.1067 65.6588 67.1067ZM70.1661 77C69.938 77 69.7513 76.9326 69.6061 76.7978C69.4713 76.6526 69.4039 76.4659 69.4039 76.2378V65.6133C69.4039 65.3852 69.4713 65.2037 69.6061 65.0689C69.7513 64.9237 69.938 64.8511 70.1661 64.8511C70.3943 64.8511 70.5758 64.9237 70.7106 65.0689C70.8558 65.2037 70.9284 65.3852 70.9284 65.6133V71.9444L74.7084 68.5689C74.8639 68.4237 75.035 68.3563 75.2217 68.3667C75.4187 68.377 75.5846 68.46 75.7195 68.6156C75.8646 68.7711 75.9321 68.9422 75.9217 69.1289C75.9113 69.3156 75.8284 69.4815 75.6728 69.6267L72.8106 72.1778L75.8284 75.88C75.9632 76.0459 76.0202 76.2274 75.9995 76.4244C75.9891 76.6111 75.8958 76.777 75.7195 76.9222C75.5535 77.057 75.3669 77.1141 75.1595 77.0933C74.9624 77.083 74.7965 76.9948 74.6617 76.8289L71.7061 73.1733L70.9284 73.8578V76.2378C70.9284 76.4659 70.8558 76.6526 70.7106 76.7978C70.5758 76.9326 70.3943 77 70.1661 77Z" fill="#ECECEC"/>
<rect x="26.5873" y="13.5873" width="24.7301" height="30.1587" rx="7.23809" stroke="#03B7F2" stroke-width="4.82539"/>
<rect x="36.2379" y="26.2541" width="25.3333" height="30.1587" rx="7.23809" stroke="#E6AF2E" stroke-width="4.82539"/>
</svg>
