<svg width="92" height="92" viewBox="0 0 92 92" fill="none" xmlns="http://www.w3.org/2000/svg">
<rect width="92" height="92" rx="12" fill="#2472A0"/>
<path d="M71.937 29.8647L70 37.9998L64.477 42.3398L42 59.9998L46 63.9998L39 64.9998L36.143 62.1428L33.223 64.7768C36.953 68.7248 41.234 72.1838 46 74.9998C60.03 66.7098 69.978 52.9558 73.461 37.0357L75 29.9997C73.974 29.9997 72.953 29.9527 71.937 29.8647Z" fill="#63C1FF"/>
<path d="M31.9999 50L53.4509 22.698L45.9999 17L38.5319 22.711C32.3499 27.438 24.7829 30 16.9999 30L18.5389 37.036C20.2179 44.71 23.4119 51.872 27.8289 58.171L29.9999 56L26.9999 53L27.9999 46L31.9999 50Z" fill="#63C1FF"/>
<path d="M63 29L59 33L37 55L42 60L64.477 42.34L70 38L75 17L63 29Z" fill="#EBEBEB"/>
<path d="M53.9999 22L53.4509 22.698L31.9999 50L36.9999 55L58.9999 33L62.9999 29L74.9999 17L53.9999 22Z" fill="#E6E6E6"/>
<path d="M30 56L27.829 58.171L18.414 67.586C17.633 68.367 17.633 69.633 18.414 70.414L21.586 73.586C22.367 74.367 23.633 74.367 24.414 73.586L32 66L36 62L30 56Z" fill="#BEBEBE"/>
<path d="M46 26L40.429 30.046C36.048 33.396 30.687 35.211 25.173 35.211L26.264 40.197C26.699 42.185 27.278 44.125 27.99 46.005L32 50L48.972 28.4L46 26Z" fill="#4398D1"/>
<path d="M64.4771 42.3398C61.1891 53.5648 56.1351 61.0109 46.0001 66.9999C44.7151 66.2409 43.483 65.4219 42.3 64.5489L46.5001 64.1779L42.3 59.9999L64.4771 42.3398Z" fill="#4398D1"/>
<path d="M63.0001 29.0002L60.3571 31.6432V45.5833L62.6791 43.7773L63.0001 29.0002Z" fill="#F5F5F5"/>
<path d="M57.8571 34.1719L57.9551 47.5329L56.2501 48.9059V35.7389L57.8571 34.1719Z" fill="#F5F5F5"/>
<path d="M46 66.9999C46.741 66.5419 48.356 65.5179 49.041 65.0409L46 61.9999L61.87 49.5308C62.858 47.3138 63.718 44.9318 64.477 42.3398L42 59.9999L40 62.9999C41.009 63.7439 46 66.9999 46 66.9999V66.9999Z" fill="#3F8FC4"/>
<path d="M71.937 29.8647L70 37.9997L64.477 42.3397C63.718 44.9317 62.858 47.3137 61.87 49.5307L68.477 44.3397L72.337 41.3067C72.758 39.9007 73.145 38.4807 73.461 37.0367L75 29.9997C73.974 29.9997 72.953 29.9527 71.937 29.8647V29.8647Z" fill="#5EB7F2"/>
<path d="M39 65L35 61L33.223 64.777C34.193 65.804 35.203 66.796 36.246 67.754L39 65Z" fill="#5EB7F2"/>
<path d="M32 66L36 62L30 56L29.5 56.5C30.25 58.5 31 61 31 63C31 64.513 30.571 66.311 30.037 67.963L32 66Z" fill="#B0B0B0"/>
<path d="M28 46L27 53L39 65L46 64L28 46Z" fill="#8C421C"/>
<path d="M45 62.9998L38 63.9998L39 64.9998L46 63.9998L45 62.9998Z" fill="#803C19"/>
</svg>
