<svg width="92" height="92" viewBox="0 0 92 92" fill="none" xmlns="http://www.w3.org/2000/svg">
<rect width="92" height="92" rx="12" fill="#282F44"/>
<path d="M10.5505 68.9036C10.1871 68.9036 9.8706 68.804 9.60098 68.6047C9.82371 68.0069 9.93508 67.198 9.93508 66.1781V58.8983C9.93508 57.9253 9.89405 57.1164 9.81199 56.4717C9.88233 56.3779 10.0171 56.3076 10.2164 56.2607C10.4274 56.2138 10.6443 56.1903 10.867 56.1903C11.1601 56.1903 11.3418 56.2255 11.4121 56.2958C11.7052 56.7179 12.5434 57.8491 13.9267 59.6896C15.181 61.3659 16.1188 62.6437 16.7401 63.5229C17.3732 64.4021 17.8186 65.1231 18.0765 65.6858L17.4962 57.7905L17.4787 57.5443C17.4787 57.1575 17.5666 56.8468 17.7424 56.6124C17.93 56.3779 18.1996 56.2431 18.5513 56.2079C18.9264 56.1845 19.2429 56.2607 19.5008 56.4365C19.3484 56.8937 19.2722 57.6147 19.2722 58.5994L19.2547 66.2133C19.2547 67.2566 19.2898 68.0537 19.3602 68.6047C19.2781 68.6868 19.1374 68.7513 18.9381 68.7981C18.7506 68.8568 18.5513 68.8861 18.3403 68.8861C18.0941 68.8861 17.9183 68.8568 17.8128 68.7981C14.6593 65.1055 12.4555 62.0869 11.2011 59.7423L11.6935 67.5848C11.7287 67.96 11.6232 68.2765 11.377 68.5344C11.1308 68.7806 10.8553 68.9036 10.5505 68.9036ZM23.1266 58.4763C22.7632 58.4763 22.4525 58.3532 22.1946 58.107C21.9367 57.8491 21.8078 57.5385 21.8078 57.1751C21.8078 56.7999 21.9367 56.4893 22.1946 56.2431C22.4525 55.9852 22.7632 55.8562 23.1266 55.8562C23.49 55.8562 23.7948 55.9852 24.041 56.2431C24.2871 56.4893 24.4102 56.7999 24.4102 57.1751C24.4102 57.5385 24.2871 57.8491 24.041 58.107C23.7948 58.3532 23.49 58.4763 23.1266 58.4763ZM24.3399 66.1781C24.3399 67.1042 24.4513 67.8427 24.674 68.3937C24.2989 68.7337 23.8593 68.9036 23.3552 68.9036C22.9918 68.9036 22.687 68.7981 22.4408 68.5871C22.2064 68.3761 22.0891 68.0889 22.0891 67.7255V62.0634C22.0891 61.1725 21.9778 60.4281 21.755 59.8303C22.1184 59.502 22.5405 59.3379 23.0211 59.3379C23.4079 59.3379 23.7186 59.4434 23.953 59.6544C24.1992 59.8537 24.3223 60.1409 24.3223 60.516L24.3399 66.1781ZM30.5728 68.9036C29.166 68.9036 28.0758 68.4875 27.3021 67.6552C26.5401 66.8229 26.1592 65.6389 26.1592 64.1032C26.1592 62.6144 26.546 61.448 27.3197 60.604C28.1051 59.7599 29.2129 59.3379 30.6431 59.3379C31.6864 59.3379 32.4836 59.5548 33.0345 59.9885C33.5855 60.4105 33.861 60.9439 33.861 61.5887C33.861 62.0576 33.7145 62.4327 33.4214 62.714C33.1283 62.9954 32.7473 63.1361 32.2784 63.1361C32.044 63.1361 31.8154 63.1009 31.5926 63.0306C31.3816 62.9602 31.2117 62.8547 31.0827 62.714C31.4227 62.4444 31.5926 62.0048 31.5926 61.3952C31.5926 60.5512 31.2117 60.1292 30.4497 60.1292C29.8753 60.1292 29.4239 60.4457 29.0957 61.0787C28.7675 61.7118 28.6033 62.6027 28.6033 63.7515C28.6033 66.2367 29.4884 67.4793 31.2585 67.4793C31.8681 67.4793 32.3839 67.3328 32.8059 67.0397C33.2397 66.7349 33.521 66.3422 33.65 65.8616C33.8493 65.9437 33.9489 66.1371 33.9489 66.4419C33.9489 66.5943 33.9255 66.7584 33.8786 66.9342C33.7027 67.5555 33.3217 68.042 32.7356 68.3937C32.1495 68.7337 31.4285 68.9036 30.5728 68.9036ZM42.7712 66.1254C42.9587 66.2074 43.0525 66.3657 43.0525 66.6001C43.0525 66.7525 43.0115 66.9284 42.9294 67.1277C42.7067 67.6903 42.3023 68.1299 41.7161 68.4465C41.13 68.7513 40.4208 68.9036 39.5885 68.9036C38.2286 68.9036 37.1501 68.4875 36.353 67.6552C35.5558 66.8111 35.1573 65.6271 35.1573 64.1032C35.1573 62.6144 35.5441 61.448 36.3178 60.604C37.0915 59.7599 38.1935 59.3379 39.6236 59.3379C40.667 59.3379 41.5227 59.5724 42.1909 60.0413C42.8591 60.4984 43.1932 61.1491 43.1932 61.9931C43.1932 62.8489 42.8474 63.5112 42.1557 63.9801C41.4641 64.449 40.538 64.6835 39.3775 64.6835C38.6272 64.6835 38.0469 64.66 37.6366 64.6131C37.7187 65.633 37.9766 66.3657 38.4103 66.8111C38.8558 67.2566 39.4654 67.4793 40.2391 67.4793C40.8604 67.4793 41.3879 67.3562 41.8216 67.1101C42.2554 66.8639 42.5719 66.5357 42.7712 66.1254ZM39.5357 60.1292C38.9261 60.1292 38.4514 60.4574 38.1114 61.1139C37.7714 61.7586 37.6015 62.6554 37.6015 63.8043V63.8218L38.1993 63.8394C38.9261 63.8394 39.5298 63.687 40.0105 63.3822C40.5028 63.0774 40.749 62.4913 40.749 61.6238C40.749 60.6274 40.3446 60.1292 39.5357 60.1292ZM50.7261 62.0458C51.5935 62.1748 52.2793 62.5089 52.7834 63.0481C53.2992 63.5874 53.5571 64.3025 53.5571 65.1934C53.5571 66.354 53.1234 67.2214 52.2559 67.7958C51.4001 68.3703 50.1634 68.6575 48.5456 68.6575H46.5938C46.207 68.6575 45.8904 68.552 45.6443 68.341C45.3981 68.1299 45.275 67.8427 45.275 67.4793V58.8983C45.275 58.0074 45.1636 57.2688 44.9409 56.6827C45.6677 56.331 46.7286 56.1552 48.1236 56.1552C49.7062 56.1552 50.9078 56.3896 51.7284 56.8585C52.549 57.3274 52.9592 58.0777 52.9592 59.1093C52.9592 59.8361 52.76 60.4633 52.3614 60.9908C51.9745 61.5066 51.4294 61.8583 50.7261 62.0458ZM47.5785 56.964V61.7469H48.4929C49.1728 61.7586 49.6769 61.5476 50.0051 61.1139C50.3451 60.6802 50.5151 60.0764 50.5151 59.3027C50.5151 58.5525 50.3334 57.9781 49.9699 57.5795C49.6065 57.1692 49.0028 56.964 48.1588 56.964H47.5785ZM48.4577 67.8486C49.3486 67.8486 49.9993 67.6141 50.4096 67.1452C50.8316 66.6763 51.0426 66.0374 51.0426 65.2286C51.0426 64.2321 50.8198 63.5405 50.3744 63.1536C49.9406 62.7551 49.3135 62.5558 48.4929 62.5558H47.5785V67.8486H48.4577ZM59.2475 68.9036C57.8994 68.9036 56.8443 68.4875 56.0823 67.6552C55.3204 66.8111 54.9394 65.6389 54.9394 64.1384C54.9394 62.6261 55.3145 61.448 56.0648 60.604C56.8267 59.7599 57.8876 59.3379 59.2475 59.3379C60.5956 59.3379 61.6448 59.7599 62.395 60.604C63.157 61.448 63.538 62.6261 63.538 64.1384C63.538 65.6389 63.157 66.8111 62.395 67.6552C61.6448 68.4875 60.5956 68.9036 59.2475 68.9036ZM59.2475 68.1124C60.4784 68.1124 61.0938 66.7877 61.0938 64.1384C61.0938 61.4656 60.4784 60.1292 59.2475 60.1292C58.6145 60.1292 58.1455 60.4633 57.8408 61.1315C57.536 61.7997 57.3836 62.802 57.3836 64.1384C57.3836 65.463 57.536 66.4595 57.8408 67.1277C58.1455 67.7841 58.6145 68.1124 59.2475 68.1124ZM69.087 68.9036C67.7389 68.9036 66.6839 68.4875 65.9219 67.6552C65.1599 66.8111 64.7789 65.6389 64.7789 64.1384C64.7789 62.6261 65.154 61.448 65.9043 60.604C66.6663 59.7599 67.7272 59.3379 69.087 59.3379C70.4351 59.3379 71.4843 59.7599 72.2346 60.604C72.9966 61.448 73.3775 62.6261 73.3775 64.1384C73.3775 65.6389 72.9966 66.8111 72.2346 67.6552C71.4843 68.4875 70.4351 68.9036 69.087 68.9036ZM69.087 68.1124C70.3179 68.1124 70.9334 66.7877 70.9334 64.1384C70.9334 61.4656 70.3179 60.1292 69.087 60.1292C68.454 60.1292 67.9851 60.4633 67.6803 61.1315C67.3755 61.7997 67.2231 62.802 67.2231 64.1384C67.2231 65.463 67.3755 66.4595 67.6803 67.1277C67.9851 67.7841 68.454 68.1124 69.087 68.1124ZM83.094 66.8463C83.2933 67.0456 83.3929 67.2918 83.3929 67.5848C83.3929 67.96 83.2347 68.2765 82.9182 68.5344C82.6016 68.7806 82.2089 68.9036 81.74 68.9036C81.3414 68.9036 80.978 68.7923 80.6498 68.5696C80.3333 68.3468 80.0871 68.0069 79.9113 67.5497L78.7683 64.8593C78.2173 65.0117 77.7719 65.1172 77.4319 65.1758C77.4319 66.184 77.4495 66.8756 77.4847 67.2507C77.5316 67.6141 77.6429 68.001 77.8188 68.4113C77.6312 68.5637 77.4319 68.6809 77.2209 68.763C77.0216 68.8568 76.7637 68.9036 76.4472 68.9036C75.9666 68.9036 75.6383 68.7923 75.4625 68.5696C75.2867 68.3468 75.1987 68.0303 75.1987 67.62L75.1811 56.964C75.1811 56.5889 75.2984 56.2958 75.5328 56.0848C75.779 55.8738 76.0955 55.7683 76.4824 55.7683C76.7754 55.7683 77.0275 55.8211 77.2385 55.9266C77.4612 56.0321 77.6371 56.1493 77.766 56.2783C77.6371 56.9465 77.555 57.4974 77.5198 57.9312C77.4847 58.3532 77.4612 58.8514 77.4495 59.4258L77.4143 60.3929L77.3967 61.5535C77.6664 60.8619 78.0649 60.3226 78.5925 59.9358C79.1317 59.5372 79.7882 59.3379 80.5619 59.3379C81.3121 59.3379 81.869 59.5255 82.2324 59.9006C82.6075 60.264 82.7951 60.7329 82.7951 61.3073C82.7951 61.9755 82.5547 62.5675 82.0741 63.0833C81.6052 63.5991 81.0073 64.027 80.2805 64.367C80.4681 64.4138 80.6381 64.5193 80.7905 64.6835C80.9546 64.8359 81.1246 65.0586 81.3004 65.3517L81.8455 66.266C82.0096 66.5591 82.1327 66.7584 82.2148 66.8639C82.3086 66.9577 82.4375 67.0046 82.6016 67.0046C82.7775 67.0046 82.9416 66.9518 83.094 66.8463ZM77.4319 64.3494C78.2642 64.1032 78.9793 63.7339 79.5772 63.2416C80.175 62.7492 80.474 62.1514 80.474 61.448C80.474 60.8032 80.2043 60.4809 79.6651 60.4809C79.2548 60.4809 78.8797 60.6567 78.5397 61.0084C78.1998 61.3483 77.9301 61.8173 77.7308 62.4151C77.5316 63.0013 77.4319 63.646 77.4319 64.3494Z" fill="#ECECEC"/>
<path d="M61.5982 47.9535H61.1695V41.2666H61.5982C62.0734 41.2666 62.4587 40.8852 62.4587 40.4146C62.4587 39.9439 62.0734 39.5625 61.5982 39.5625H60.309H56.722H53.8475C55.6118 38.2089 57.023 36.1327 57.7346 33.6375C58.4499 31.1288 58.3509 28.5459 57.4558 26.3642C56.5303 24.1085 54.8701 22.5443 52.7808 21.9604C52.2079 21.8002 51.614 21.7189 51.0158 21.7189C49.874 21.7189 48.7126 22.0205 47.6195 22.5854C47.9293 21.5016 48.5208 20.0934 49.6487 18.7781C49.9562 18.4192 49.912 17.8816 49.5497 17.5771C49.1873 17.2726 48.6443 17.3162 48.3368 17.6751C47.7567 18.3518 47.2978 19.0455 46.9347 19.7186L46.1489 19.008C46.2573 18.1043 46.2842 15.9649 44.4156 14.6491C43.483 13.9924 42.2929 13.6453 40.9742 13.6453C40.0168 13.6453 39.3243 13.8238 39.2485 13.8441C38.8477 13.9518 38.5817 14.3276 38.6161 14.7372C38.6261 14.8567 38.8859 17.68 40.9308 19.1615C42.1014 20.0098 43.3723 20.1877 44.2325 20.1877C44.4729 20.1877 44.6864 20.1739 44.8659 20.1555L46.2024 21.3641C46.0002 21.9292 45.8619 22.4481 45.767 22.8921C44.5204 22.1297 43.1603 21.7189 41.8269 21.7189C41.2287 21.7189 40.6348 21.8002 40.062 21.9604C37.9728 22.5443 36.3124 24.1083 35.3869 26.3642C34.492 28.5459 34.393 31.1288 35.1082 33.6375C35.8199 36.1329 37.2311 38.209 38.9954 39.5625H34.6384C31.8277 39.5625 29.5413 41.8267 29.5413 44.6105C29.5413 47.3934 31.8279 49.6575 34.6384 49.6575H56.722H60.309H61.5982C62.0734 49.6575 62.4587 49.2761 62.4587 48.8055C62.4587 48.3348 62.0734 47.9535 61.5982 47.9535ZM34.6384 47.9535C32.7768 47.9535 31.2622 46.4538 31.2622 44.6095C31.2622 42.7663 32.7768 41.2666 34.6384 41.2666H49.1107H49.1112H56.7222H59.4487V47.9535H56.7222H34.6384Z" fill="#E6AF2E"/>
</svg>
