<svg width="92" height="92" viewBox="0 0 92 92" fill="none" xmlns="http://www.w3.org/2000/svg">
<rect width="92" height="92" rx="12" fill="#8A7FDF"/>
<path d="M73.9048 49.0113L78.9004 49.0113C79.2877 49.0113 79.6368 48.778 79.785 48.4202C79.9176 48.0999 79.8668 47.7329 79.652 47.4608L78.8138 46.3984C78.2175 45.6426 77.318 45.1884 76.3557 45.1574L73.9683 45.0802C73.3387 45.0599 72.7375 45.3425 72.3514 45.8402C71.3493 47.132 72.27 49.0113 73.9048 49.0113Z" fill="#DAC7FC"/>
<path d="M55.6421 67.2119L55.6421 48.3544C55.5185 47.2419 56.0869 45.0168 59.3491 45.0168C62.6113 45.0168 71.4587 45.0168 75.4746 45.0168C76.7103 45.0725 79.1817 45.8179 79.1817 48.3544" stroke="#FAFAFA" stroke-width="2" stroke-linecap="round"/>
<path d="M62.567 66.7893L49.9859 66.7893C48.377 66.7893 47.4808 68.6487 48.4831 69.9072C48.8476 70.3649 49.4008 70.6315 49.9859 70.6315L62.567 70.6315C63.8967 70.6315 64.8243 69.3133 64.3753 68.0617C64.1015 67.2984 63.3779 66.7893 62.567 66.7893Z" fill="#DAC7FC"/>
<path d="M72.2962 47.8706L72.2962 67.5362C72.4197 68.6964 71.8513 71.0168 68.5892 71.0168C65.327 71.0168 56.4795 71.0168 52.4636 71.0168C51.2279 70.9588 48.7566 70.1815 48.7566 67.5362" stroke="#FAFAFA" stroke-width="2" stroke-linecap="round"/>
<path d="M67.4058 71.0168C66.2062 70.9587 63.8071 70.1798 63.8071 67.5291" stroke="#FAFAFA" stroke-width="2" stroke-linecap="round"/>
<path d="M72.3252 66.2607L72.3252 48.2114C72.2153 47.1466 72.7206 45.0168 75.6203 45.0168" stroke="#FAFAFA" stroke-width="2" stroke-linecap="round"/>
<line x1="60.5535" y1="51.7947" x2="67.0594" y2="51.7947" stroke="#DAC7FC" stroke-width="2" stroke-linecap="round"/>
<line x1="60.5532" y1="56.239" x2="67.0592" y2="56.239" stroke="#DAC7FC" stroke-width="2" stroke-linecap="round"/>
<line x1="60.5535" y1="60.6836" x2="67.0594" y2="60.6836" stroke="#DAC7FC" stroke-width="2" stroke-linecap="round"/>
<path d="M21.08 58.3379C21.4877 58.3379 21.8249 58.4814 22.0914 58.7683C22.3737 59.0384 22.5149 59.3928 22.5149 59.8317C22.5149 60.2537 22.3737 60.6081 22.0914 60.8951C21.8249 61.1651 21.4877 61.3002 21.08 61.3002H13.4349C13.0272 61.3002 12.6822 61.1567 12.3999 60.8698C12.1333 60.5659 12 60.1946 12 59.7557V45.1217C12 44.6828 12.1411 44.3199 12.4234 44.033C12.7057 43.7292 13.0664 43.5772 13.5055 43.5772C13.8975 43.5772 14.2347 43.7292 14.517 44.033C14.7993 44.3199 14.9404 44.6828 14.9404 45.1217V58.3379H21.08ZM27.6317 59.7557C27.6317 60.1946 27.4984 60.5659 27.2318 60.8698C26.9652 61.1567 26.6281 61.3002 26.2203 61.3002C25.8126 61.3002 25.4754 61.1567 25.2088 60.8698C24.9422 60.5659 24.8089 60.1946 24.8089 59.7557V49.2992C24.8089 48.8604 24.9422 48.4975 25.2088 48.2105C25.4754 47.9067 25.8126 47.7548 26.2203 47.7548C26.6281 47.7548 26.9652 47.9067 27.2318 48.2105C27.4984 48.4975 27.6317 48.8604 27.6317 49.2992V59.7557ZM26.1968 46.1091C25.6636 46.1091 25.2872 46.0163 25.0677 45.8306C24.8481 45.6449 24.7384 45.3158 24.7384 44.8432V44.3621C24.7384 43.8895 24.856 43.5604 25.0912 43.3747C25.3264 43.189 25.7028 43.0962 26.2203 43.0962C26.7692 43.0962 27.1534 43.189 27.373 43.3747C27.5925 43.5604 27.7023 43.8895 27.7023 44.3621V44.8432C27.7023 45.3327 27.5847 45.6702 27.3494 45.8559C27.1299 46.0247 26.7457 46.1091 26.1968 46.1091ZM29.8036 59.1987C29.6624 58.9962 29.5919 58.743 29.5919 58.4392C29.5919 58.0003 29.7957 57.629 30.2035 57.3252C30.423 57.1733 30.6504 57.0973 30.8857 57.0973C31.215 57.0973 31.5286 57.2577 31.8266 57.5784C32.297 58.1016 32.7832 58.4898 33.285 58.743C33.8025 58.9962 34.422 59.1228 35.1433 59.1228C36.3666 59.0721 36.9782 58.5742 36.9782 57.629C36.9782 57.1395 36.7664 56.7682 36.343 56.515C35.9353 56.2618 35.2923 56.0086 34.4141 55.7554C33.5046 55.4854 32.7597 55.2153 32.1794 54.9452C31.6149 54.6752 31.1209 54.2701 30.6975 53.7299C30.2897 53.1729 30.0859 52.4303 30.0859 51.5019C30.0859 50.6917 30.2976 49.9913 30.721 49.4005C31.1601 48.7928 31.7246 48.3287 32.4147 48.008C33.1204 47.6704 33.8653 47.5016 34.6494 47.5016C35.4492 47.5016 36.2489 47.662 37.0487 47.9827C37.8485 48.3034 38.4758 48.776 38.9306 49.4005C39.1345 49.6706 39.2364 49.9744 39.2364 50.312C39.2364 50.7002 39.0874 51.0209 38.7894 51.2741C38.5699 51.4597 38.319 51.5526 38.0367 51.5526C37.6917 51.5526 37.4094 51.4344 37.1899 51.1981C36.9076 50.8268 36.5391 50.5314 36.0843 50.312C35.6452 50.0925 35.1433 49.9828 34.5788 49.9828C33.3869 49.9828 32.791 50.447 32.791 51.3753C32.791 51.7467 32.9008 52.0505 33.1204 52.2868C33.3399 52.5062 33.6143 52.6835 33.9437 52.8185C34.2887 52.9366 34.767 53.0885 35.3786 53.2742C36.2254 53.5274 36.9311 53.789 37.4957 54.0591C38.0602 54.3292 38.5385 54.7427 38.9306 55.2997C39.3226 55.8567 39.5187 56.5909 39.5187 57.5024C39.5187 58.3295 39.2913 59.0553 38.8365 59.6798C38.3817 60.2874 37.7936 60.7516 37.0723 61.0723C36.3666 61.393 35.6373 61.5534 34.8846 61.5534C33.8496 61.5534 32.8851 61.3677 31.9912 60.9964C31.0974 60.625 30.3681 60.0258 29.8036 59.1987ZM47.9499 58.4392C48.1694 58.4392 48.3655 58.5573 48.538 58.7936C48.7261 59.0131 48.8202 59.3085 48.8202 59.6798C48.8202 60.1355 48.585 60.5237 48.1145 60.8444C47.6598 61.1483 47.1422 61.3002 46.562 61.3002C45.5897 61.3002 44.7664 61.0807 44.0921 60.6419C43.4334 60.1862 43.1041 59.2325 43.1041 57.7809V50.793H42.022C41.6457 50.793 41.332 50.658 41.0811 50.3879C40.8302 50.1178 40.7047 49.7803 40.7047 49.3752C40.7047 48.987 40.8302 48.6663 41.0811 48.4131C41.332 48.143 41.6457 48.008 42.022 48.008H43.1041V46.3876C43.1041 45.9487 43.2374 45.5858 43.504 45.2989C43.7863 44.9951 44.1313 44.8432 44.539 44.8432C44.9311 44.8432 45.2604 44.9951 45.527 45.2989C45.7936 45.5858 45.9269 45.9487 45.9269 46.3876V48.008H47.597C47.9734 48.008 48.287 48.143 48.538 48.4131C48.7889 48.6831 48.9143 49.0207 48.9143 49.4258C48.9143 49.814 48.7889 50.1432 48.538 50.4132C48.287 50.6664 47.9734 50.793 47.597 50.793H45.9269V57.6543C45.9269 58.0088 46.0131 58.2704 46.1856 58.4392C46.3581 58.5911 46.5934 58.6671 46.8913 58.6671C47.0168 58.6671 47.1893 58.6333 47.4088 58.5658C47.597 58.4814 47.7774 58.4392 47.9499 58.4392Z" fill="white"/>
<path d="M24.9199 22.1806C25.3092 22.1806 25.6255 22.3085 25.8689 22.5644C26.1122 22.8202 26.2338 23.14 26.2338 23.5238V37.5076C26.2338 37.9233 26.0878 38.2751 25.7959 38.563C25.5201 38.8348 25.1714 38.9707 24.7496 38.9707C24.5225 38.9707 24.2954 38.9387 24.0683 38.8748C23.8575 38.7948 23.7034 38.6909 23.606 38.563L14.6764 27.3855V37.6275C14.6764 38.0113 14.5467 38.3311 14.2871 38.587C14.0438 38.8428 13.7194 38.9707 13.3139 38.9707C12.9246 38.9707 12.6083 38.8428 12.365 38.587C12.1217 38.3311 12 38.0113 12 37.6275V23.6437C12 23.228 12.1379 22.8842 12.4136 22.6123C12.7056 22.3245 13.0625 22.1806 13.4842 22.1806C13.7275 22.1806 13.9627 22.2286 14.1898 22.3245C14.4331 22.4204 14.6116 22.5484 14.7251 22.7083L23.5817 33.8377V23.5238C23.5817 23.14 23.7034 22.8202 23.9467 22.5644C24.2062 22.3085 24.5306 22.1806 24.9199 22.1806ZM32.3982 37.5076C32.3982 37.9233 32.2603 38.2751 31.9846 38.563C31.7088 38.8348 31.3601 38.9707 30.9383 38.9707C30.5166 38.9707 30.1678 38.8348 29.8921 38.563C29.6163 38.2751 29.4785 37.9233 29.4785 37.5076V27.6014C29.4785 27.1856 29.6163 26.8418 29.8921 26.57C30.1678 26.2822 30.5166 26.1383 30.9383 26.1383C31.3601 26.1383 31.7088 26.2822 31.9846 26.57C32.2603 26.8418 32.3982 27.1856 32.3982 27.6014V37.5076ZM30.914 24.5792C30.3625 24.5792 29.9732 24.4912 29.7461 24.3153C29.519 24.1394 29.4055 23.8276 29.4055 23.3799V22.9241C29.4055 22.4764 29.5271 22.1646 29.7704 21.9887C30.0137 21.8128 30.403 21.7249 30.9383 21.7249C31.5061 21.7249 31.9035 21.8128 32.1306 21.9887C32.3577 22.1646 32.4712 22.4764 32.4712 22.9241V23.3799C32.4712 23.8436 32.3496 24.1634 32.1062 24.3393C31.8791 24.4992 31.4817 24.5792 30.914 24.5792ZM41.0681 25.8984C42.4469 25.8984 43.558 26.1143 44.4015 26.546C45.245 26.9618 45.6667 27.5215 45.6667 28.225C45.6667 28.5768 45.5613 28.8886 45.3504 29.1605C45.1395 29.4163 44.8638 29.5443 44.5232 29.5443C44.2636 29.5443 44.0527 29.5123 43.8905 29.4483C43.7283 29.3684 43.5661 29.2724 43.4039 29.1605C43.2579 29.0326 43.1119 28.9286 42.9659 28.8487C42.8037 28.7687 42.5604 28.6968 42.236 28.6328C41.9278 28.5688 41.6764 28.5369 41.4817 28.5369C40.2652 28.5369 39.3081 28.9126 38.6106 29.6642C37.9294 30.3998 37.5887 31.3672 37.5887 32.5665C37.5887 33.7178 37.9375 34.6772 38.635 35.4448C39.3325 36.1964 40.2246 36.5721 41.3114 36.5721C42.1062 36.5721 42.6983 36.4762 43.0876 36.2843C43.1849 36.2363 43.3147 36.1564 43.4769 36.0444C43.6553 35.9165 43.8175 35.8206 43.9635 35.7566C44.1095 35.6927 44.2879 35.6607 44.4988 35.6607C44.9043 35.6607 45.2206 35.7886 45.4477 36.0444C45.6911 36.3003 45.8127 36.6281 45.8127 37.0279C45.8127 37.4116 45.5856 37.7714 45.1314 38.1072C44.6772 38.443 44.0771 38.7149 43.3309 38.9228C42.5848 39.1146 41.7899 39.2106 40.9464 39.2106C39.6974 39.2106 38.5944 38.9228 37.6374 38.3471C36.6966 37.7714 35.9666 36.9799 35.4476 35.9725C34.9285 34.9491 34.669 33.8138 34.669 32.5665C34.669 31.2712 34.9366 30.1199 35.4719 29.1125C36.0234 28.1051 36.7858 27.3216 37.759 26.7619C38.7323 26.1862 39.8353 25.8984 41.0681 25.8984ZM59.6001 32.2547C59.5838 32.6384 59.4297 32.9503 59.1378 33.1901C58.8458 33.43 58.5051 33.5499 58.1158 33.5499H50.0865C50.2812 34.4934 50.7272 35.2369 51.4247 35.7806C52.1222 36.3083 52.9089 36.5721 53.7849 36.5721C54.4499 36.5721 54.969 36.5162 55.3421 36.4042C55.7151 36.2763 56.0071 36.1484 56.218 36.0205C56.4451 35.8765 56.5992 35.7806 56.6803 35.7326C56.9723 35.5887 57.248 35.5168 57.5076 35.5168C57.8482 35.5168 58.1402 35.6367 58.3835 35.8765C58.6268 36.1164 58.7485 36.3962 58.7485 36.7161C58.7485 37.1478 58.5214 37.5396 58.0672 37.8914C57.613 38.2591 57.0047 38.571 56.2423 38.8268C55.4799 39.0827 54.7095 39.2106 53.9309 39.2106C52.5683 39.2106 51.3761 38.9308 50.3541 38.3711C49.3485 37.8114 48.5699 37.0439 48.0183 36.0684C47.4668 35.077 47.1911 33.9657 47.1911 32.7344C47.1911 31.3592 47.4831 30.1519 48.067 29.1125C48.651 28.0731 49.4214 27.2816 50.3785 26.7379C51.3355 26.1782 52.3574 25.8984 53.4442 25.8984C54.5148 25.8984 55.5205 26.1862 56.4613 26.7619C57.4183 27.3376 58.1807 28.1131 58.7485 29.0885C59.3162 30.064 59.6001 31.1193 59.6001 32.2547ZM53.4442 28.5369C51.5626 28.5369 50.4515 29.4083 50.1108 31.1513H56.4856V30.9834C56.4208 30.3118 56.0882 29.7362 55.4881 29.2564C54.8879 28.7767 54.2066 28.5369 53.4442 28.5369Z" fill="white"/>
</svg>
