<svg width="92" height="92" viewBox="0 0 92 92" fill="none" xmlns="http://www.w3.org/2000/svg">
<rect width="92" height="92" rx="12" fill="#F48843"/>
<path d="M15.3391 51.6922H12V48.143H24.1188V51.6922H20.7797V64.208H15.3391V51.6922ZM24.8495 52.673H29.7764V55.0547C30.1345 54.1362 30.617 53.459 31.2241 53.0232C31.8467 52.5717 32.5706 52.3461 33.3957 52.3461L34.0729 56.1521C32.5939 56.1521 31.5043 56.3156 30.8038 56.6425C30.1188 56.9539 29.7764 57.4519 29.7764 58.1369V64.208H24.8495V52.673ZM40.9912 60.4019H34.5232V57.1328L40.7343 48.5867H45.9648V57.1795H48.2064V60.4252H45.9648V64.208H40.9912V60.4019ZM40.9912 57.1795V52.5562L37.9557 57.1795H40.9912ZM55.8598 64.3948C54.6146 64.3948 53.5093 64.1458 52.5441 63.6475C51.5946 63.1338 50.8474 62.4179 50.3024 61.4993C49.7732 60.5808 49.5085 59.5379 49.5085 58.3704C49.5085 57.2496 49.7887 56.23 50.3491 55.3115C50.9095 54.393 51.6725 53.6692 52.6375 53.14C53.6027 52.6108 54.6768 52.3461 55.8598 52.3461C57.3699 52.3461 58.5608 52.6575 59.4324 53.2801L58.9887 56.3856C58.1014 56.1209 57.3699 55.9887 56.7938 55.9887C56.0466 55.9887 55.4552 56.2067 55.0192 56.6425C54.5834 57.0628 54.3654 57.6387 54.3654 58.3704C54.3654 59.1021 54.5834 59.6859 55.0192 60.1217C55.4552 60.5575 56.0311 60.7755 56.7471 60.7755C57.3699 60.7755 58.1014 60.6432 58.942 60.3785L59.3857 63.6475C58.8565 63.9123 58.3194 64.0991 57.7745 64.208C57.2298 64.3326 56.5915 64.3948 55.8598 64.3948ZM72.6178 64.3948C71.5749 64.3948 70.7343 64.2625 70.096 63.9978C69.4734 63.7176 68.9597 63.2585 68.5549 62.6201C68.1501 61.9818 67.7922 61.0712 67.4808 59.8882L66.1031 60.9856V64.208H61.1529L61.1762 48.8202L66.1265 48.0963L66.1031 56.0821L72.1041 51.1785L74.7894 54.8445L71.03 57.4597C71.2168 58.6427 71.4815 59.4679 71.8239 59.9349C72.182 60.4019 72.7034 60.6354 73.3884 60.6354C73.6686 60.6354 74.0034 60.5887 74.3925 60.4953L73.9254 64.3247C73.4584 64.3714 73.0227 64.3948 72.6178 64.3948Z" fill="#F9F9F9"/>
<path d="M77.8118 64.3252C77.1215 64.3252 76.5809 64.1363 76.1901 63.7586C75.7994 63.381 75.604 62.9054 75.604 62.3323C75.604 61.7462 75.8058 61.2709 76.2097 60.9061C76.6135 60.5413 77.1475 60.359 77.8118 60.359C78.463 60.359 78.9905 60.5544 79.3944 60.9451C79.7982 61.3228 80 61.7853 80 62.3323C80 62.9445 79.8111 63.4329 79.4334 63.7977C79.0558 64.1494 78.5152 64.3252 77.8118 64.3252Z" fill="#F0D051"/>
<path d="M24.1655 44.689C21.2389 44.689 19.4487 43.3347 18.7949 40.6261L18.2112 38.221H17.1137V44.3154H12V28.2505H19.0751C20.4139 28.2505 21.5891 28.4528 22.601 28.8576C23.6284 29.2467 24.4223 29.7994 24.9827 30.5154C25.5431 31.2315 25.8233 32.0566 25.8233 32.9906C25.8233 34.0335 25.5665 34.9131 25.0528 35.6291C24.5546 36.3296 23.7763 36.9056 22.7177 37.3571C22.8267 37.9486 22.9512 38.4857 23.0913 38.9682C23.2781 39.5598 23.535 39.9723 23.8619 40.2058C24.1888 40.4393 24.6636 40.556 25.2863 40.556C25.5042 40.556 25.8467 40.5249 26.3137 40.4626V44.2687C25.582 44.5489 24.866 44.689 24.1655 44.689ZM18.001 34.952C19.153 34.952 19.9624 34.8274 20.4294 34.5784C20.912 34.3137 21.1533 33.8701 21.1533 33.2474C21.1533 32.7182 20.9587 32.3368 20.5695 32.1033C20.1804 31.8542 19.5655 31.7297 18.7249 31.7297H17.1137V34.952H18.001ZM32.0635 44.5022C30.7559 44.5022 29.7362 44.0819 29.0046 43.2413C28.273 42.4007 27.9071 41.2565 27.9071 39.8088V32.617H32.8574V39.5987C32.8574 39.9567 32.9508 40.2369 33.1376 40.4393C33.34 40.6261 33.5968 40.7195 33.9081 40.7195C34.2195 40.7195 34.5387 40.6261 34.8656 40.4393L35.1224 43.685C34.7798 43.9497 34.3285 44.152 33.768 44.2921C33.2232 44.4322 32.655 44.5022 32.0635 44.5022ZM30.3823 30.8657C29.6506 30.8657 29.0279 30.64 28.5142 30.1885C28.0161 29.7215 27.767 29.1533 27.767 28.484C27.767 27.8146 28.0317 27.2542 28.5609 26.8028C29.0902 26.3513 29.6973 26.1256 30.3823 26.1256C31.0983 26.1256 31.7132 26.3591 32.2269 26.8261C32.7562 27.2931 33.0208 27.8457 33.0208 28.484C33.0208 29.1689 32.7562 29.7371 32.2269 30.1885C31.6977 30.64 31.0828 30.8657 30.3823 30.8657ZM43.0903 49.6626C42.234 49.6626 41.4167 49.5771 40.6385 49.4058L41.0121 45.9499C41.6193 46.0433 42.1797 46.09 42.6934 46.09C43.6583 46.09 44.3901 45.802 44.8883 45.2261C45.3863 44.6657 45.6822 43.7162 45.7756 42.3773C44.8571 43.6695 43.4561 44.3154 41.5726 44.3154C40.5451 44.3154 39.5954 44.0507 38.7238 43.5215C37.8675 42.9923 37.1827 42.2761 36.669 41.3733C36.1708 40.4704 35.9218 39.4819 35.9218 38.4078C35.9218 37.3181 36.1708 36.3219 36.669 35.419C37.167 34.5005 37.8441 33.7767 38.7005 33.2474C39.5721 32.7182 40.5218 32.4535 41.5492 32.4535C42.4987 32.4535 43.3238 32.7026 44.0243 33.2007C44.7403 33.6833 45.2073 34.3371 45.4253 35.1621V32.4535H50.3522V41.3499C50.3522 44.0741 49.7294 46.1367 48.4842 47.5377C47.2543 48.9542 45.4563 49.6626 43.0903 49.6626ZM43.0903 40.8129C43.7129 40.8129 44.25 40.5949 44.7015 40.1591C45.1528 39.7076 45.3941 39.1784 45.4253 38.5713V38.3845C45.3941 37.7929 45.1451 37.2714 44.6781 36.82C44.2266 36.3686 43.6974 36.1428 43.0903 36.1428C42.452 36.1428 41.9071 36.3763 41.4558 36.8434C41.0043 37.2948 40.7786 37.8396 40.7786 38.4779C40.7786 39.1161 41.0043 39.6687 41.4558 40.1357C41.9071 40.5872 42.452 40.8129 43.0903 40.8129ZM52.7178 28.9276L57.6446 28.2038V35.022C57.9873 34.197 58.501 33.5665 59.1858 33.1307C59.8863 32.6792 60.7269 32.4535 61.7076 32.4535C63.202 32.4535 64.3695 32.9906 65.2101 34.0647C66.0664 35.1232 66.4944 36.5943 66.4944 38.4779V44.3154H61.5908V37.9875C61.5908 37.3181 61.4431 36.8044 61.1472 36.4464C60.867 36.0884 60.47 35.9093 59.9563 35.9093C59.5827 35.9093 59.217 36.0339 58.8589 36.2829C58.501 36.5164 58.205 36.8589 57.9715 37.3104C57.7538 37.7618 57.6446 38.2755 57.6446 38.8515V44.3154H52.7178V28.9276ZM73.6567 44.5022C72.2869 44.5022 71.2206 44.1131 70.4577 43.3347C69.695 42.5408 69.3135 41.4511 69.3135 40.0657V35.5124H67.8191V32.617H69.6638L71.8354 28.2038H74.1937V32.617H76.9024V35.5124H74.1937V39.4819C74.1937 39.8711 74.3184 40.1746 74.5673 40.3926C74.8166 40.6105 75.1668 40.7195 75.6181 40.7195C76.0384 40.7195 76.4199 40.6261 76.7623 40.4393L76.9491 43.7083C76.56 43.9418 76.0541 44.1365 75.4313 44.2921C74.8242 44.4322 74.2328 44.5022 73.6567 44.5022Z" fill="#F9F9F9"/>
</svg>
