<svg width="92" height="92" viewBox="0 0 92 92" fill="none" xmlns="http://www.w3.org/2000/svg">
<rect width="92" height="92" rx="12" fill="#101117"/>
<circle cx="62.3618" cy="66.6079" r="5.152" fill="#4B92E3"/>
<path d="M34.5087 68.0103C37.242 63.3365 43.8469 59.5477 49.2612 59.5477V59.5477L47.0684 63.2973C44.3351 67.9711 37.7301 71.7599 32.3158 71.7599V71.7599L34.5087 68.0103Z" fill="#F7F9F9"/>
<path d="M48.7984 43.5824C51.5305 38.9107 58.1325 35.1235 63.5445 35.1235V35.1235L61.3494 38.8769C58.6173 43.5485 52.0153 47.3357 46.6034 47.3357V47.3357L48.7984 43.5824Z" fill="#F7F9F9"/>
<path d="M41.6538 55.8028C44.3886 51.1265 50.9972 47.3356 56.4145 47.3356V47.3356L54.2244 51.0804C51.4896 55.7568 44.881 59.5477 39.4637 59.5477V59.5477L41.6538 55.8028Z" fill="#F7F9F9"/>
<path d="M23.92 28.6359H32.3158V71.76V71.76C27.6789 71.76 23.92 68.0011 23.92 63.3642L23.92 28.6359Z" fill="#F7F9F9"/>
<path d="M23.92 28.636C23.92 23.9991 27.6789 20.2401 32.3158 20.2401H59.0299C63.6668 20.2401 67.4258 23.9991 67.4258 28.636V28.636H23.92V28.636Z" fill="#F7F9F9"/>
</svg>
